<?xml version="1.0" encoding="UTF-8"?><svg id="Layer_1" xmlns="http://www.w3.org/2000/svg" viewBox="0 0 82.15 135.75"><defs><style>.cls-1{fill:#5c3c25;stroke-width:0px;}</style></defs><path class="cls-1" d="m11.42,127.27c-2.23-.59-4.01-2.25-5.01-4.67-.36-.86-.37-.97-.37-2.94s.01-2.08.37-2.94c.73-1.76,1.03-2.11,5.24-6.19.9-.88,3.5-3.42,5.77-5.64,2.28-2.23,5.05-4.94,6.17-6.02,2.56-2.47,5.93-5.77,7.19-7.02.52-.52,2.44-2.39,4.26-4.16,1.82-1.75,3.77-3.66,4.33-4.22,1.31-1.32,8.09-7.93,9.97-9.73.8-.77,2.66-2.58,4.13-4.05l2.68-2.65-2.05-2.02c-1.12-1.1-3.5-3.42-5.27-5.14-1.78-1.73-4.4-4.28-5.84-5.7-2.79-2.74-6.96-6.82-9.49-9.29-.84-.82-2.95-2.89-4.69-4.6-1.74-1.7-3.55-3.48-4.02-3.94-.47-.46-1.68-1.64-2.68-2.61-1-.97-3.66-3.57-5.9-5.76-2.24-2.19-4.86-4.76-5.83-5.7-2.76-2.7-3.05-3.02-3.55-3.98-.69-1.32-.92-2.49-.83-4.31.08-1.8.38-2.85,1.14-3.99,1.06-1.6,2.65-2.78,4.34-3.22,1.16-.31,3.47-.32,4.64-.03.94.24,2.37.93,2.87,1.39.18.18.34.32.36.32.03,0,.98.93,2.14,2.08,1.16,1.14,3.64,3.57,5.52,5.4,1.88,1.83,4.27,4.16,5.3,5.18,1.02,1.02,2.4,2.37,3.05,2.99,1.74,1.69,9.41,9.2,10.53,10.31.53.52,2.44,2.39,4.26,4.16,1.82,1.75,3.74,3.63,4.26,4.16.95.95,3.13,3.08,9.49,9.27,7.66,7.47,8.24,8.11,9.11,10.03.71,1.57.92,2.66.92,5.07.01,2.02-.01,2.26-.34,3.36-.36,1.22-.92,2.38-1.63,3.45-.43.63-1.95,2.16-7.23,7.3-1.72,1.66-4.52,4.41-6.23,6.11-1.72,1.7-3.33,3.27-3.57,3.5-.24.23-2.39,2.32-4.77,4.64-2.38,2.33-5,4.9-5.83,5.71-.84.81-2.38,2.34-3.45,3.39-1.07,1.06-3.17,3.11-4.67,4.57-1.5,1.44-3.7,3.61-4.91,4.8-1.21,1.18-3.57,3.51-5.28,5.15-1.69,1.65-3.96,3.88-5.04,4.92-2.15,2.12-3.33,2.94-4.78,3.31-1.14.28-3.66.26-4.81-.05Z"/></svg>