<svg width="53" height="65" viewBox="0 0 53 65" fill="none" xmlns="http://www.w3.org/2000/svg">
<g id="next arrow" filter="url(#filter0_d_151_47)">
<path d="M32.8027 19.0552C33.2941 19.1864 33.6871 19.5575 33.9089 20.0969C33.9875 20.2881 33.9903 20.3138 33.9903 20.7534C33.9903 21.1929 33.9875 21.2186 33.9089 21.4098C33.7489 21.8037 33.6815 21.8807 32.7522 22.7912C32.5528 22.9881 31.9801 23.5533 31.4775 24.0499C30.975 24.5465 30.3629 25.1516 30.1158 25.3942C29.5515 25.945 28.8075 26.6814 28.5296 26.9611C28.4144 27.0781 27.9905 27.4948 27.589 27.8887C27.1875 28.2797 26.758 28.705 26.6344 28.8306C26.3452 29.1245 24.8488 30.6001 24.4333 31.0026C24.2564 31.1738 23.8465 31.5791 23.5208 31.9073L22.9284 32.4981L23.3804 32.9491C23.6275 33.1945 24.1525 33.7111 24.5428 34.0964C24.9358 34.4817 25.5142 35.0526 25.8314 35.3694C26.4463 35.9802 27.3672 36.8906 27.9259 37.4415C28.1112 37.6241 28.5773 38.0865 28.9619 38.469C29.3466 38.8486 29.7452 39.2453 29.8491 39.348C29.953 39.4508 30.2197 39.7134 30.4415 39.9303C30.6633 40.1472 31.2501 40.7266 31.7443 41.2146C32.2384 41.7027 32.8168 42.2764 33.0301 42.4876C33.6394 43.0898 33.704 43.1612 33.8135 43.3752C33.9651 43.6692 34.0156 43.9318 33.996 44.3371C33.9791 44.7395 33.9117 44.9735 33.7433 45.2275C33.5102 45.5843 33.1593 45.8469 32.7859 45.9468C32.5304 46.0153 32.0194 46.0181 31.7611 45.9525C31.5533 45.8983 31.2389 45.7441 31.1266 45.6414C31.0873 45.6014 31.0508 45.57 31.048 45.57C31.0424 45.57 30.8318 45.3617 30.5763 45.1048C30.3208 44.8508 29.7733 44.3085 29.3578 43.9004C28.9423 43.4922 28.4144 42.9728 28.187 42.7445C27.9624 42.5161 27.6564 42.2164 27.5132 42.0766C27.1286 41.6998 25.4356 40.0245 25.1885 39.7762C25.0706 39.6591 24.6494 39.2424 24.248 38.8486C23.8465 38.4575 23.4225 38.038 23.3074 37.921C23.0968 37.7098 22.6167 37.2331 21.2129 35.8517C19.5228 34.1849 19.3936 34.0422 19.2027 33.6141C19.0455 33.263 19.0005 33.0204 19.0005 32.4838C18.9977 32.0329 19.0034 31.9787 19.0764 31.7332C19.155 31.4621 19.2785 31.2023 19.4357 30.9626C19.5312 30.8227 19.8653 30.4802 21.0304 29.3329C21.4095 28.9618 22.0271 28.3482 22.4062 27.9686C22.7852 27.589 23.1418 27.238 23.1951 27.1866C23.2484 27.1352 23.7229 26.67 24.248 26.1505C24.773 25.6311 25.3513 25.0574 25.5338 24.8776C25.7191 24.6978 26.0589 24.3553 26.2947 24.1212C26.5305 23.8843 26.9938 23.4277 27.3251 23.1023C27.6564 22.7798 28.1421 22.2974 28.4088 22.032C28.6755 21.7694 29.1978 21.25 29.574 20.8818C29.9474 20.5136 30.4471 20.017 30.6858 19.783C31.1603 19.3092 31.4214 19.1265 31.7414 19.0437C31.9941 18.9809 32.55 18.9867 32.8027 19.0552Z" fill="#5C3C25"/>
</g>
<defs>
<filter id="filter0_d_151_47" x="0" y="0" width="53" height="65" filterUnits="userSpaceOnUse" color-interpolation-filters="sRGB">
<feFlood flood-opacity="0" result="BackgroundImageFix"/>
<feColorMatrix in="SourceAlpha" type="matrix" values="0 0 0 0 0 0 0 0 0 0 0 0 0 0 0 0 0 0 127 0" result="hardAlpha"/>
<feOffset/>
<feGaussianBlur stdDeviation="9.5"/>
<feComposite in2="hardAlpha" operator="out"/>
<feColorMatrix type="matrix" values="0 0 0 0 0 0 0 0 0 0 0 0 0 0 0 0 0 0 0.47 0"/>
<feBlend mode="normal" in2="BackgroundImageFix" result="effect1_dropShadow_151_47"/>
<feBlend mode="normal" in="SourceGraphic" in2="effect1_dropShadow_151_47" result="shape"/>
</filter>
</defs>
</svg>
