<?xml version="1.0" encoding="UTF-8"?><svg id="Layer_1" xmlns="http://www.w3.org/2000/svg" xmlns:xlink="http://www.w3.org/1999/xlink" viewBox="0 0 540.9 516.91"><defs><style>.cls-1{filter:url(#drop-shadow-2);}.cls-2{fill:#493424;stroke-width:0px;}</style><filter id="drop-shadow-2" filterUnits="userSpaceOnUse"><feOffset dx="0" dy="0"/><feGaussianBlur result="blur" stdDeviation="2"/><feFlood flood-color="#000" flood-opacity=".75"/><feComposite in2="blur" operator="in"/><feComposite in="SourceGraphic"/></filter></defs><g class="cls-1"><path class="cls-2" d="m215.8,446.52c-9.21-9.29-18.59-18.17-27.22-27.72-3.71-4.11-7.58-6.98-12.71-8.89-30.5-11.35-60.93-22.87-91.35-34.41-34.44-13.06-55.5-45.18-53.37-81.22,2.04-34.4,26.59-64.19,60.56-72.74,7.17-1.8,14.78-2.54,22.19-2.56,92.81-.17,185.63-.14,278.44,0,4.22,0,6.36-1.21,8.36-4.98,15.1-28.48,30.48-56.81,45.78-85.18,4.15-7.7,7.55-8.72,15.24-4.59,9.95,5.35,19.9,10.7,29.83,16.09,7.23,3.92,8.3,7.36,4.45,14.52-10.39,19.32-20.82,38.61-31.23,57.91-.93,1.73-1.81,3.5-3.16,6.13,6.84,0,13.03-.06,19.22.02,6.28.07,9.45,2.96,9.36,9.05-.8,53.79-9.71,105.83-33.87,154.48-12.23,24.64-22.15,36.64-52.41,64.09,2.59,0,4.28,0,5.98,0,29.77,0,59.55.04,89.32-.04,4.64-.01,8.81.54,10.51,5.58,1.71,5.07-1.41,8.17-5.06,10.84-14.36,10.5-30.92,15.97-47.82,20.45-34.08,9.03-68.98,12.36-104.06,14.04-36.42,1.75-72.83,1.54-109.21-.98-35.05-2.43-69.93-6.37-103.27-18.1-11.15-3.92-21.52-10.16-32.05-15.71-3.83-2.02-6.45-5.54-4.93-10.36,1.59-5.05,5.69-5.77,10.38-5.76,32.27.08,64.54.04,96.81.04,1.82,0,3.64,0,5.3,0Zm-69.22-211.42c.74,9.85,1.24,19.29,2.19,28.68,3.79,37.28,11.97,73.45,28.21,107.43,14.24,29.78,34.28,54.48,63.64,70.75,5.47,3.03,10.96,4.74,17.43,4.69,33.93-.28,67.86-.41,101.79.05,9.1.12,16.76-2.26,24.37-6.78,30.64-18.19,50.12-45.54,63.98-77.49,13.34-30.77,20.21-63.21,23.91-96.38,1.13-10.18,1.57-20.44,2.34-30.96H146.58Zm321.95,227.6H145.61c59.31,25.06,249.89,27.48,322.93,0Zm-300.1-72.62c-3.06-6.36-5.37-11.83-8.31-16.93-1.26-2.2-3.53-4.41-5.84-5.31-20.26-7.91-40.8-15.15-60.94-23.35-17.82-7.25-28.1-21.16-30.02-40.24-1.84-18.25,5.2-33.22,19.99-44.21,8.39-6.24,18.01-9.14,28.46-9.19,6.57-.04,13.13,0,19.85,0-.35-5.77-.64-10.69-.96-15.96-6.97,0-13.6-.07-20.22.02-10.32.14-20.18,2.5-29.11,7.64-23.61,13.58-35.96,34.14-33.97,61.39,2.01,27.57,17.16,46.52,42.93,56.64,15.45,6.07,31.04,11.81,46.57,17.68,10.18,3.85,20.38,7.66,31.56,11.86Zm-37.02-123.28c-5.48,0-12.11-.04-18.74,0-17.26.11-30.37,11.03-33.33,27.71-2.7,15.2,6.37,30.14,21.95,36.08,8.84,3.37,17.69,6.71,26.54,10.05,7.21,2.72,14.43,5.41,20.92,7.84-5.74-27.08-11.47-54.08-17.33-81.68Zm284.69-47.93c8.45,0,15.94-.15,23.41.08,2.96.09,4.43-1,5.76-3.52,6.5-12.35,13.2-24.6,19.81-36.89,4.7-8.74,9.39-17.49,14.29-26.61-7.12-3.84-13.91-7.5-21.06-11.35-14.08,26.12-27.93,51.8-42.21,78.3Z"/><path class="cls-2" d="m302.12,170.95c10.48,0,20.95.05,31.43-.02,9.75-.07,16.87-6.82,16.91-15.88.04-9.07-7.07-15.97-16.76-16.03-13.97-.08-27.94.03-41.9-.03-16.75-.07-29.27-12.24-29.15-28.22.12-15.73,12.62-27.6,29.18-27.67,10.97-.05,21.95.02,32.92-.02,6.16-.03,9.74-3.12,9.73-8.22-.01-4.87-3.21-7.48-9.52-7.77-17.2-.8-30.12-14.16-30.38-31.44-.05-2.99-.16-6,.08-8.98.36-4.42,3.73-7.45,7.89-7.44,4.16,0,7.5,3.04,7.89,7.46.23,2.64.06,5.32.09,7.98.13,9.9,6.18,16.09,16.12,16.48,13.85.55,23.8,10.45,23.8,23.71,0,13.2-10.24,23.9-23.5,24.16-11.47.22-22.95.03-34.42.07-8.53.03-14.06,4.92-13.91,12.21.15,7.1,5.55,11.71,13.88,11.74,12.97.04,25.96.43,38.91-.08,21.49-.85,35.08,15.49,35.01,32.16-.06,16.52-13.55,32.65-35.26,31.96-19.27-.61-38.57-.14-57.86-.12-7.47,0-9.38,1.59-10.76,8.76-.9,4.66-4.46,7.59-8.7,7.14-4.3-.45-7.16-3.92-7.18-8.7-.04-12.21,10.68-22.89,23.51-23.13,10.64-.19,21.28-.04,31.93-.05Z"/></g></svg>