<?xml version="1.0" encoding="UTF-8"?><svg id="Layer_1" xmlns="http://www.w3.org/2000/svg" viewBox="0 0 587.36 580"><defs><style>.cls-1,.cls-2,.cls-3,.cls-4{fill:none;}.cls-1,.cls-5,.cls-6,.cls-7,.cls-8{stroke-width:0px;}.cls-2{stroke-width:5.2px;}.cls-2,.cls-3{stroke:#741e17;}.cls-2,.cls-3,.cls-4{stroke-linecap:round;stroke-linejoin:round;}.cls-3{stroke-width:5.78px;}.cls-4{stroke:#493424;stroke-width:9.03px;}.cls-6{fill:#493424;}.cls-7{fill:#c07d4d;}.cls-8{fill:#741e17;}</style></defs><path class="cls-1" d="m136.01,141.29c10.97,34.65,21.99,69.47,32.87,103.86,43.84-13.88,87.97-27.84,131.98-41.78-10.92-34.46-21.91-69.16-32.9-103.85-44.12,13.97-88.26,27.94-131.94,41.78h0Zm114.91-21.33c1.88-3.21,7.79-5.08,11.22-3.55,2.62,1.17,3.46,4.27,1.83,6.77-1.96,3.01-7.61,4.72-10.91,3.3-2.58-1.11-3.56-4.1-2.14-6.52h0Zm4.37,35.13c-2.08,2.6-6.81,4.12-10,3.22-2.94-.83-4.34-3.86-3.02-6.51,1.73-3.47,8.37-5.52,11.72-3.61,2.53,1.44,3.12,4.62,1.29,6.9h0Zm2.42,10.14c1.88.25,3.34,1.23,3.98,3.08.66,1.93.08,3.62-1.34,5.05-2.59,2.62-7.61,3.69-10.43,2.2-3.02-1.59-3.46-5.29-.75-7.7,2.4-2.14,5.31-3.05,8.54-2.62Zm-28.5-.53c2.46-2.71,7.64-3.92,10.54-2.46,2.71,1.36,3.55,4.66,1.56,6.96-2.55,2.94-5.95,4.07-9.73,3.33-3.82-.75-4.99-4.93-2.37-7.83Zm-1.98,18.81c-1.96,2.46-6.79,4.02-9.81,3.16-3.04-.87-4.44-3.73-3.15-6.44,1.68-3.52,8.19-5.62,11.63-3.76,2.65,1.44,3.25,4.62,1.33,7.04h0Zm9.87-50.02c1.93-2.83,7.37-4.55,10.59-3.34,2.7,1.01,3.81,3.87,2.51,6.41-1.74,3.4-7.87,5.42-11.33,3.73-2.66-1.29-3.45-4.32-1.75-6.81h0Zm-14.23,14.69c1.88-3.29,8.07-5.17,11.43-3.47,2.57,1.31,3.29,4.49,1.55,6.84-2.07,2.79-7.05,4.38-10.35,3.32-2.86-.92-4.1-4.09-2.62-6.68h0Zm-2.7,10.51c2.6,1.29,3.38,4.46,1.7,6.83-1.97,2.75-7.11,4.45-10.34,3.42-2.89-.92-4.18-4.05-2.73-6.64,1.84-3.31,8.04-5.26,11.39-3.6h0Zm-39.39,32.03c1.73-3.35,7.85-5.38,11.29-3.75,3.05,1.45,3.65,5.22,1.12,7.66-2.33,2.24-5.26,3.15-8.42,2.88-3.68-.32-5.57-3.71-3.98-6.79h0Zm-2.87-11.15c-2.87-.93-4.16-4.09-2.73-6.66,1.88-3.38,8.24-5.27,11.6-3.44,2.45,1.33,3.12,4.39,1.47,6.7-1.96,2.75-7.11,4.44-10.34,3.4h0Zm17.3-3.67c2.2-3.05,7.79-4.58,10.95-3,2.71,1.36,3.43,4.56,1.56,6.98-1.99,2.57-6.83,4.16-9.98,3.27-3.36-.94-4.57-4.41-2.53-7.24Zm7.95-31.18c1.77-3.42,8.13-5.42,11.51-3.63,2.59,1.38,3.25,4.4,1.5,6.87-1.95,2.74-7.18,4.38-10.35,3.23-2.87-1.04-4.02-3.83-2.66-6.46h0Zm-3.42,10.29c3.43,1.05,4.53,4.7,2.26,7.47-2.38,2.9-7.92,4.28-10.87,2.71-2.57-1.37-3.27-4.52-1.55-6.87,1.96-2.66,6.95-4.29,10.16-3.31h0Zm-16.06-13.65c1.8-3.29,7.98-5.25,11.38-3.6,2.75,1.33,3.39,4.68,1.38,7.19-2.07,2.6-7.14,4.07-10.26,2.96-2.75-.97-3.9-3.98-2.5-6.55h0Zm-14.16,14.11c1.71-3.46,8.09-5.56,11.51-3.79,2.9,1.5,3.46,5.2.96,7.57-2.47,2.34-5.52,3.36-8.91,2.78-3.36-.57-4.98-3.7-3.56-6.56h0Zm-19.45-3.45c1.79-3.31,7.96-5.27,11.35-3.63,2.85,1.38,3.55,4.96,1.26,7.33-2.62,2.71-5.93,3.74-9.64,2.94-3.08-.66-4.46-3.91-2.98-6.64h0Zm8.27,24.16c-2.88-.95-4.15-4.06-2.71-6.66,1.83-3.3,8.04-5.24,11.39-3.55,2.62,1.33,3.37,4.4,1.65,6.81-1.97,2.77-7.11,4.46-10.33,3.39h0Zm5.83,17.62c-3.65-1.07-4.74-4.98-2.18-7.79,2.56-2.81,7.81-3.98,10.74-2.38,2.53,1.37,3.19,4.56,1.42,6.88-1.95,2.55-6.94,4.2-9.98,3.3h0Zm2.63,10.87c1.77-3.28,7.76-5.25,11.17-3.7,3.01,1.38,3.73,5.05,1.33,7.48-2.47,2.49-5.59,3.52-9.07,2.97-3.44-.55-5.02-3.82-3.44-6.76h0Zm18.36,21.03c-2.04,2.64-7.11,4.13-10.28,3.03-2.82-.99-3.97-3.94-2.55-6.53,1.84-3.36,8.02-5.28,11.42-3.56,2.64,1.34,3.3,4.62,1.41,7.07h0Zm14.66-14.87c-1.76,3.49-8.05,5.55-11.52,3.77-2.57-1.31-3.29-4.52-1.53-6.9,2.05-2.77,7.18-4.35,10.43-3.21,2.74.97,3.91,3.79,2.62,6.33h0Zm.49-16.69c1.72-3.38,7.92-5.42,11.35-3.75,2.83,1.38,3.62,4.8,1.47,7.16-2.49,2.75-5.76,3.83-9.4,3.21-3.34-.57-4.88-3.77-3.42-6.63Zm18.93,20.15c-1.73,3.29-8.07,5.29-11.35,3.6-2.9-1.49-3.51-5.16-1.06-7.53,2.63-2.54,5.89-3.54,9.5-2.74,3.08.68,4.39,3.86,2.91,6.67Zm13.91-13.56c-1.94,2.96-7.34,4.7-10.69,3.46-2.75-1.02-3.86-4.01-2.45-6.59,1.79-3.26,8.07-5.21,11.41-3.53,2.49,1.25,3.28,4.31,1.73,6.66h0Zm1.3-18.07c2.09-2.9,7.78-4.41,10.86-2.88,2.88,1.43,3.55,4.98,1.23,7.35-2.52,2.59-5.72,3.62-9.27,2.96-3.7-.69-5.03-4.38-2.83-7.43h0Zm18.08,21.49c-2.07,3.05-8.03,4.67-11.17,3.03-2.71-1.42-3.35-4.91-1.15-7.21,2.54-2.66,5.75-3.75,9.39-3.05,3.56.69,4.94,4.25,2.92,7.23Zm14.33-14.29c-1.84,3.15-7.59,5.05-11,3.63-2.86-1.19-3.77-4.59-1.9-7.06,2.1-2.78,7.09-4.35,10.37-3.25,2.88.96,4.05,4.07,2.52,6.68h0Zm17.68-3.16c2.6,1.36,3.29,4.38,1.57,6.85-1.94,2.8-7.35,4.46-10.56,3.25-2.66-1.01-3.79-3.9-2.51-6.39,1.75-3.41,8.15-5.47,11.51-3.71h0Zm-5.53-17.51c2.76,1.44,3.4,4.86,1.19,7.22-2.48,2.64-5.69,3.66-9.24,3.09-3.35-.55-4.92-3.71-3.49-6.6,1.71-3.47,8.07-5.51,11.54-3.71Zm-4.18-10.58c-2.56,2.94-5.94,4.03-9.73,3.26-3.62-.74-4.85-4.59-2.55-7.49,2.3-2.91,7.79-4.3,10.84-2.74,2.7,1.38,3.47,4.64,1.44,6.97Zm-4.95-18.36c-1.69,3.36-8.14,5.42-11.54,3.69-2.56-1.31-3.31-4.52-1.6-6.86,2.06-2.82,7.34-4.42,10.59-3.23,2.63.97,3.81,3.9,2.55,6.4Z"/><path class="cls-1" d="m118.98,146.24c-4.36.86-5.75,3.6-6.31,7.56-1.64,11.7-3.5,23.38-5.15,35.08-.23,1.67-.07,3.53.42,5.14,2.44,8.09,5.03,16.13,7.63,24.17.34,1.05.93,2.12,1.68,2.93,5.75,6.28,11.57,12.5,17.39,18.73,3.3,3.53,6.53,7.14,10.05,10.44,1.07,1.01,3.12,1.84,4.47,1.55,3.95-.86,7.77-2.33,11.57-3.53-11.08-34.98-22.08-69.72-33.26-105.01-2.71.97-5.51,2.36-8.48,2.94h0Z"/><path class="cls-1" d="m298.42,116.83c-1.79-5.64-3.53-11.29-5.37-16.91-1.44-4.39-5.11-6.74-9.16-5.74-2.75.68-5.42,1.64-8.03,2.45,11.09,35.05,22.1,69.81,33.18,104.86,2.02-.68,4.18-1.44,6.37-2.15,5.38-1.75,7.37-5.51,5.67-10.88-7.55-23.88-15.11-47.75-22.67-71.62h0Z"/><path class="cls-1" d="m99.1,196.9c-24.22,6.64-48.43,13.28-72.66,19.92-14.96,4.1-29.92,8.2-44.87,12.34-7.18,1.99-12.03,7.63-12.36,14.64-.64,13.72,11.53,21.86,23.82,17.31,33.84-12.55,67.88-24.56,101.84-36.79,4.31-1.55,8.63-3.12,12.91-4.68-2.47-7.75-4.86-15.27-7.35-23.07-.45.11-.9.21-1.33.32Z"/><path class="cls-7" d="m231.42,194.05c-3.33-1.68-9.62.27-11.41,3.53-1.41,2.57-.3,5.57,2.45,6.59,3.35,1.25,8.75-.5,10.69-3.46,1.55-2.36.75-5.42-1.73-6.66h0Z"/><path class="cls-7" d="m264.35,183.17c-3.28-1.09-8.27.47-10.37,3.25-1.87,2.47-.95,5.87,1.9,7.06,3.4,1.42,9.16-.48,11-3.63,1.53-2.62.36-5.73-2.52-6.68h0Z"/><path class="cls-7" d="m189.59,158.3c-1.73,2.35-1.02,5.5,1.55,6.87,2.95,1.57,8.5.19,10.87-2.71,2.27-2.77,1.17-6.42-2.26-7.47-3.21-.98-8.2.65-10.16,3.31h0Z"/><path class="cls-7" d="m168.68,172.78c1.71-2.4.97-5.48-1.65-6.81-3.35-1.69-9.56.25-11.39,3.55-1.44,2.6-.17,5.7,2.71,6.66,3.21,1.07,8.35-.62,10.33-3.39h0Z"/><path class="cls-7" d="m225.49,154.86c3.31,1.07,8.29-.53,10.35-3.32,1.75-2.35,1.02-5.53-1.55-6.84-3.35-1.7-9.55.18-11.43,3.47-1.48,2.6-.24,5.76,2.62,6.68h0Z"/><path class="cls-7" d="m256.75,137.06c-1.71,2.34-.95,5.55,1.6,6.86,3.4,1.74,9.85-.32,11.54-3.69,1.25-2.49.08-5.42-2.55-6.4-3.25-1.2-8.53.41-10.59,3.23Z"/><path class="cls-7" d="m174.17,190.49c1.77-2.32,1.12-5.5-1.42-6.88-2.94-1.59-8.19-.42-10.74,2.38-2.57,2.82-1.47,6.72,2.18,7.79,3.05.9,8.03-.75,9.98-3.3h0Z"/><path class="cls-7" d="m188.26,176.16c1.65-2.32.98-5.38-1.47-6.7-3.36-1.83-9.72.06-11.6,3.44-1.44,2.58-.14,5.74,2.73,6.66,3.23,1.05,8.39-.65,10.34-3.4h0Z"/><path class="cls-7" d="m208.79,162.28c-1.44,2.6-.16,5.72,2.73,6.64,3.23,1.03,8.37-.67,10.34-3.42,1.69-2.36.91-5.53-1.7-6.83-3.35-1.67-9.55.29-11.39,3.6h0Z"/><path class="cls-7" d="m254.01,148.19c-3.35-1.92-9.99.13-11.72,3.61-1.33,2.66.08,5.69,3.02,6.51,3.19.9,7.91-.62,10-3.22,1.83-2.28,1.23-5.46-1.29-6.9h0Z"/><path class="cls-7" d="m162.7,155.71c2.29-2.37,1.59-5.94-1.26-7.33-3.4-1.65-9.57.32-11.35,3.63-1.47,2.73-.09,5.98,2.98,6.64,3.7.8,7.01-.23,9.64-2.94h0Z"/><path class="cls-7" d="m205.83,151.16c3.16,1.15,8.4-.49,10.35-3.23,1.75-2.46,1.09-5.49-1.5-6.87-3.38-1.79-9.74.22-11.51,3.63-1.36,2.63-.21,5.42,2.66,6.46h0Z"/><path class="cls-7" d="m231.59,172.53c3.78.73,7.18-.39,9.73-3.33,1.99-2.29,1.16-5.59-1.56-6.96-2.9-1.46-8.09-.25-10.54,2.46-2.62,2.9-1.44,7.08,2.37,7.83Z"/><path class="cls-7" d="m186.2,147.89c3.12,1.11,8.19-.35,10.26-2.96,2.01-2.52,1.36-5.87-1.38-7.19-3.4-1.65-9.58.31-11.38,3.6-1.4,2.57-.25,5.57,2.5,6.55h0Z"/><path class="cls-7" d="m216.33,207.61c-3.62-.81-6.87.2-9.5,2.74-2.45,2.36-1.84,6.04,1.06,7.53,3.29,1.69,9.62-.31,11.35-3.6,1.48-2.8.17-5.99-2.91-6.67Z"/><path class="cls-7" d="m246.55,187.13c2.31-2.38,1.64-5.92-1.23-7.35-3.07-1.53-8.77-.02-10.86,2.88-2.2,3.05-.87,6.75,2.83,7.43,3.55.66,6.75-.37,9.27-2.96h0Z"/><path class="cls-7" d="m273.04,190.4c-1.28,2.49-.14,5.39,2.51,6.39,3.21,1.21,8.62-.45,10.56-3.25,1.72-2.48,1.03-5.49-1.57-6.85-3.36-1.76-9.76.31-11.51,3.71h0Z"/><path class="cls-7" d="m267.49,172.89c-1.43,2.88.14,6.05,3.49,6.6,3.55.58,6.75-.45,9.24-3.09,2.21-2.35,1.57-5.79-1.19-7.22-3.46-1.81-9.81.24-11.54,3.71Z"/><path class="cls-7" d="m179.31,208.45c2.4-2.43,1.68-6.11-1.33-7.48-3.42-1.57-9.41.42-11.17,3.7-1.58,2.94,0,6.21,3.44,6.76,3.47.55,6.59-.47,9.07-2.97h0Z"/><path class="cls-7" d="m213.15,197.55c2.14-2.36,1.35-5.78-1.47-7.16-3.43-1.68-9.62.36-11.35,3.75-1.46,2.86.08,6.06,3.42,6.63,3.64.62,6.9-.47,9.4-3.21Z"/><path class="cls-7" d="m183.76,218.63c-3.4-1.72-9.58.21-11.42,3.56-1.42,2.6-.27,5.55,2.55,6.53,3.16,1.1,8.24-.39,10.28-3.03,1.89-2.44,1.23-5.73-1.41-7.07h0Z"/><path class="cls-7" d="m253.07,126.48c3.3,1.42,8.94-.29,10.91-3.3,1.63-2.5.79-5.61-1.83-6.77-3.43-1.53-9.35.34-11.22,3.55-1.42,2.43-.44,5.41,2.14,6.52h0Z"/><path class="cls-7" d="m225.91,176.47c-3.44-1.87-9.96.23-11.63,3.76-1.29,2.71.11,5.57,3.15,6.44,3.01.86,7.85-.69,9.81-3.16,1.92-2.42,1.33-5.6-1.33-7.04h0Z"/><path class="cls-7" d="m197.21,204.49c-3.25-1.14-8.39.44-10.43,3.21-1.75,2.38-1.04,5.59,1.53,6.9,3.47,1.77,9.76-.29,11.52-3.77,1.29-2.55.12-5.37-2.62-6.33h0Z"/><path class="cls-7" d="m249.61,196.91c-3.64-.7-6.85.38-9.39,3.05-2.2,2.3-1.56,5.79,1.15,7.21,3.13,1.64,9.1.03,11.17-3.03,2.02-2.98.64-6.54-2.92-7.23Z"/><path class="cls-7" d="m173.09,162.02c3.39.58,6.44-.43,8.91-2.78,2.49-2.37,1.94-6.07-.96-7.57-3.42-1.77-9.8.33-11.51,3.79-1.42,2.86.2,5.99,3.56,6.56h0Z"/><path class="cls-7" d="m184.77,197.5c3.16.27,6.1-.63,8.42-2.88,2.53-2.43,1.92-6.2-1.12-7.66-3.44-1.64-9.55.39-11.29,3.75-1.59,3.08.31,6.47,3.98,6.79h0Z"/><path class="cls-7" d="m197.75,183.14c3.16.89,7.99-.69,9.98-3.27,1.87-2.42,1.16-5.62-1.56-6.98-3.16-1.58-8.75-.05-10.95,3-2.05,2.83-.84,6.3,2.53,7.24Z"/><path class="cls-7" d="m262.56,154.37c-2.29,2.9-1.07,6.75,2.55,7.49,3.79.77,7.17-.32,9.73-3.26,2.03-2.33,1.27-5.59-1.44-6.97-3.05-1.56-8.54-.16-10.84,2.74Z"/><path class="cls-7" d="m249.92,175.56c2.82,1.49,7.84.42,10.43-2.2,1.42-1.44,2-3.12,1.34-5.05-.64-1.84-2.09-2.83-3.98-3.08-3.23-.42-6.14.49-8.54,2.62-2.71,2.42-2.27,6.11.75,7.7Z"/><path class="cls-7" d="m238.85,140.29c3.46,1.68,9.59-.34,11.33-3.73,1.31-2.54.18-5.4-2.51-6.41-3.22-1.21-8.66.51-10.59,3.34-1.69,2.49-.91,5.51,1.75,6.81h0Z"/><path class="cls-1" d="m242.74,39.53c4.42-.68,7.48-.38,10.35,1.64,7.52,5.32,13.35,11.89,12.41,21.64-1.01,10.5-7.97,17.04-16.78,22.2,6.77-16.17,4.23-31.13-5.99-45.47h0Z"/><path class="cls-1" d="m118.98,146.24c-4.36.86-5.75,3.6-6.31,7.56-1.64,11.7-3.5,23.38-5.15,35.08-.23,1.67-.07,3.53.42,5.14,2.44,8.09,5.03,16.13,7.63,24.17.34,1.05.93,2.12,1.68,2.93,5.75,6.28,11.57,12.5,17.39,18.73,3.3,3.53,6.53,7.14,10.05,10.44,1.07,1.01,3.12,1.84,4.47,1.55,3.95-.86,7.77-2.33,11.57-3.53-11.08-34.98-22.08-69.72-33.26-105.01-2.71.97-5.51,2.36-8.48,2.94h0Z"/><path class="cls-1" d="m248.73,85.01c8.8-5.16,15.76-11.7,16.78-22.2.94-9.75-4.89-16.32-12.41-21.64-2.87-2.03-5.92-2.32-10.35-1.64,10.22,14.34,12.76,29.31,5.99,45.47h0Z"/><path class="cls-1" d="m99.1,196.9c-24.22,6.64-48.43,13.28-72.66,19.92-14.96,4.1-29.92,8.2-44.87,12.34-7.18,1.99-12.03,7.63-12.36,14.64-.64,13.72,11.53,21.86,23.82,17.31,33.84-12.55,67.88-24.56,101.84-36.79,4.31-1.55,8.63-3.12,12.91-4.68-2.47-7.75-4.86-15.27-7.35-23.07-.45.11-.9.21-1.33.32Z"/><path class="cls-1" d="m136.01,141.29c10.97,34.65,21.99,69.47,32.87,103.86,43.84-13.88,87.97-27.84,131.98-41.78-10.92-34.46-21.91-69.16-32.9-103.85-44.12,13.97-88.26,27.94-131.94,41.78h0Z"/><path class="cls-1" d="m298.42,116.83c-1.79-5.64-3.53-11.29-5.37-16.91-1.44-4.39-5.11-6.74-9.16-5.74-2.75.68-5.42,1.64-8.03,2.45,11.09,35.05,22.1,69.81,33.18,104.86,2.02-.68,4.18-1.44,6.37-2.15,5.38-1.75,7.37-5.51,5.67-10.88-7.55-23.88-15.11-47.75-22.67-71.62h0Z"/><path class="cls-5" d="m160.09,125.28c-.16.05-.32.1-.49.16.14.06.29.13.43.19l.05-.35h0Z"/><path class="cls-1" d="m99.1,196.9c-24.22,6.64-48.43,13.28-72.66,19.92-14.96,4.1-29.92,8.2-44.87,12.34-7.18,1.99-12.03,7.63-12.36,14.64-.64,13.72,11.53,21.86,23.82,17.31,33.84-12.55,67.88-24.56,101.84-36.79,4.31-1.55,8.63-3.12,12.91-4.68-2.47-7.75-4.86-15.27-7.35-23.07-.45.11-.9.21-1.33.32Z"/><path class="cls-1" d="m167.89,135.99v-4.79c-10.65,3.37-21.27,6.74-31.87,10.09,10.97,34.65,21.99,69.47,32.87,103.86,43.84-13.88,87.97-27.84,131.98-41.78-10.92-34.46-21.91-69.16-32.9-103.85-17.16,5.44-34.33,10.87-51.46,16.3v20.19h-48.62Z"/><path class="cls-1" d="m118.98,146.24c-4.36.86-5.75,3.6-6.31,7.56-1.64,11.7-3.5,23.38-5.15,35.08-.23,1.67-.07,3.53.42,5.14,2.44,8.09,5.03,16.13,7.63,24.17.34,1.05.93,2.12,1.68,2.93,5.75,6.28,11.57,12.5,17.39,18.73,3.3,3.53,6.53,7.14,10.05,10.44,1.07,1.01,3.12,1.84,4.47,1.55,3.95-.86,7.77-2.33,11.57-3.53-11.08-34.98-22.08-69.72-33.26-105.01-2.71.97-5.51,2.36-8.48,2.94h0Z"/><path class="cls-1" d="m298.42,116.83c-1.79-5.64-3.53-11.29-5.37-16.91-1.44-4.39-5.11-6.74-9.16-5.74-2.75.68-5.42,1.64-8.03,2.45,11.09,35.05,22.1,69.81,33.18,104.86,2.02-.68,4.18-1.44,6.37-2.15,5.38-1.75,7.37-5.51,5.67-10.88-7.55-23.88-15.11-47.75-22.67-71.62h0Z"/><path class="cls-7" d="m328.55,186.59c-9.39-29.75-18.82-59.49-28.27-89.22-2.79-8.76-11.17-12.96-19.97-10.17-21.27,6.74-42.54,13.47-63.81,20.21v8.4c17.14-5.42,34.3-10.86,51.46-16.3,10.99,34.69,21.98,69.39,32.9,103.85-44.01,13.93-88.13,27.9-131.98,41.78-10.89-34.39-21.9-69.2-32.87-103.86,10.6-3.36,21.23-6.72,31.87-10.09v-8.4c-2.6.82-5.2,1.65-7.8,2.47l-.05.35c-.14-.07-.29-.13-.43-.19-14.99,4.75-29.99,9.51-44.99,14.22-3.68,1.16-6.53,3.23-7.83,6.87-.92,2.58-1.49,5.32-1.91,8.03-1.66,10.62-3.24,21.26-4.75,31.9-.24,1.67-.84,2.47-2.54,2.93-16.54,4.47-33.05,9.04-49.58,13.57-22.75,6.24-45.49,12.48-68.25,18.71-6.96,1.9-12.22,5.94-14.92,11.03-5.28,10.18-3.79,21.64,2.97,29.34,6.59,7.51,16.84,10.09,26.47,6.63,38.32-13.78,76.63-27.57,114.93-41.4,1.77-.64,2.85-.47,4.16.97,7.77,8.5,15.71,16.86,23.49,25.34,4.85,5.28,10.08,7.32,17.46,4.96,54.5-17.48,109.09-34.68,163.66-51.96,8.96-2.84,13.38-11.07,10.57-19.99h0Zm-233.68,37.74c-33.96,12.22-68,24.24-101.84,36.79-12.29,4.55-24.46-3.59-23.82-17.31.33-7.01,5.18-12.65,12.36-14.64,14.95-4.14,29.91-8.24,44.87-12.34,24.21-6.64,48.43-13.28,72.66-19.92.43-.12.87-.21,1.33-.32,2.49,7.8,4.88,15.33,7.35,23.07-4.28,1.55-8.59,3.12-12.91,4.68h0Zm54.27,27.52c-1.34.29-3.4-.53-4.47-1.55-3.51-3.31-6.74-6.92-10.05-10.44-5.82-6.22-11.63-12.45-17.39-18.73-.75-.81-1.33-1.88-1.68-2.93-2.6-8.03-5.19-16.08-7.63-24.17-.49-1.62-.65-3.47-.42-5.14,1.65-11.7,3.51-23.38,5.15-35.08.55-3.96,1.95-6.7,6.31-7.56,2.96-.59,5.77-1.97,8.48-2.94,11.18,35.3,22.18,70.04,33.26,105.01-3.8,1.2-7.62,2.67-11.57,3.53h0Zm166.28-52.5c-2.18.71-4.35,1.47-6.37,2.15-11.09-35.05-22.09-69.8-33.18-104.86,2.61-.81,5.29-1.78,8.03-2.45,4.05-.99,7.72,1.35,9.16,5.74,1.83,5.62,3.58,11.28,5.37,16.91,7.56,23.88,15.12,47.75,22.67,71.62,1.7,5.37-.29,9.13-5.67,10.88h0Z"/><path class="cls-7" d="m159.77,118.75c-6.99-3.82-14.17-2.38-21.36-.55-3.92,1-7.85,1.99-11.71,3.18-9.3,2.84-18.57,5.78-27.85,8.69-1.45.45-2.79,1.05-4.12-.48-6.51-7.48-9.89-15.91-8.33-25.78.16-.97,1.18-2.2,2.11-2.59,3.59-1.51,7.31-2.73,11.09-4.1.68.68,1.52,1.31,2.07,2.11,3.67,5.37,7.33,10.75,10.87,16.21,1.12,1.73,1.87,3.77,4.53,2.79,1.91-.71,2.12-2.54.65-5.44-1.08-2.12-2.16-4.25-3.49-6.22-2.79-4.12-5.75-8.14-8.49-12.01,8.04-5.72,16.08-11.44,24.27-17.27,8.42,6.39,16.04,13.76,19.36,24.43.11.36.18.88.44,1.01,1.12.58,2.51,1.67,3.4,1.39.91-.29,1.7-1.9,1.9-3.05.17-.98-.52-2.14-.91-3.19-3.11-8.44-8.76-15.09-15.51-20.97-1.58-1.38-3.21-2.73-4.47-3.8,6.73-8.91,13.24-17.53,19.84-26.27,1.55,1.07,2.86,1.83,4.01,2.77,11.04,8.96,18.41,20.17,21.88,33.79.21.84.11,1.95.63,2.49.85.88,2.22,2.05,3.14,1.9.94-.16,2.05-1.7,2.29-2.79.26-1.24-.27-2.7-.63-4.01-4.12-14.76-12.23-26.96-24.52-36.5-.86-.67-1.7-1.37-2.86-2.31,2.82-2.67,5.22-5.42,8.11-7.57,3.9-2.9,8.02-5.61,12.33-7.86,3.92-2.05,7.72-1.34,11.11,1.92,3.62,3.48,7.51,6.74,11.44,9.89,1.77,1.42,1.92,2.94.99,4.57-2.09,3.66-4.35,7.23-6.61,10.78-.73,1.15-1.97,2.05-2.47,3.26-.4.98-.46,2.63.14,3.32.61.71,2.22.88,3.35.79.92-.07,1.79-.86,2.66-1.36,4.01-2.33,8.03-4.66,12.2-7.09,6.12,9.92,8.62,20.08,4.36,31.09-.99,2.55-2.2,5.01-3.16,7.56-.64,1.72-1.75,2.47-3.59,2.73-4.39.6-8.76,1.33-13.13,2.07-1.34.23-2.77.37-4.01.82l17.7,2.74c10.4-2.14,20.85-4.12,31.14-6.69,10.58-2.64,18.98-8.59,24.9-17.68,9.61-14.77,3.81-33.78-12.58-41.3-4.85-2.22-9.81-2.31-14.88-1.07-8.09,1.99-15.26,5.93-22.3,10.12-3.01,1.79-5.98,3.67-9.58,5.88.75-2.33,1.35-3.98,1.82-5.67,1.02-3.71.15-6.69-3.13-9.2-3.9-2.99-7.66-6.2-11.18-9.61-5.33-5.16-11.38-6.02-17.79-2.97-4.29,2.03-8.42,4.59-12.13,7.51-9.03,7.12-16.23,15.9-22.64,25.33-10.96,16.15-25.4,28.45-43.23,36.88-3.86,1.83-7.92,3.33-12.04,4.48-3.01.84-4.56,2.52-4.93,5.35-.36,2.82-.84,5.69-.66,8.5.62,9.52,4.37,17.77,11.17,24.73,2.18,2.23,4.3,2.79,7.42,1.78,12.13-3.92,24.37-7.56,36.57-11.28,1.57-.48,3.23-.68,4.77-1.23,6.55-2.36,12.56-1.9,18.26.75l.49-.16.86-5.51h-.02Zm92.15-78.58c7.52,5.32,13.35,11.89,12.41,21.64-1.01,10.5-7.97,17.04-16.78,22.2,6.77-16.17,4.23-31.13-5.99-45.47,4.42-.68,7.48-.38,10.35,1.64h0Zm-17.27-.42c10.65,10.5,13.61,26.52,7.8,40.19-3.4,8.02-3.4,8.05-11.87,10.04-3.83.9-7.7,1.64-12.52,2.66,8.33-15.13,6.73-29.06-2.03-43.25,6.6-3.41,12.69-6.57,18.63-9.63h0Z"/><path class="cls-8" d="m161.67,119.92c4.59-6.23,6.91-12.53,7.16-19.56.02-.62-.03-1.24-.03-1.86.02-1.7.73-2.96,2.57-3.09,2.02-.14,3.28,1.07,3.14,2.92-.3,4.06-.42,8.24-1.55,12.09-1.24,4.22-3.54,8.13-5.54,12.53,5.01,3.5,10.35,7.23,15.8,11.04,5.65-2.99,9.39-7.56,12.32-12.87.42-.76.58-1.84,1.22-2.26,1.03-.68,2.48-1.48,3.52-1.24,1.66.38,2.15,1.99,1.57,3.64-.29.82-.69,1.59-1.08,2.37-2.81,5.53-6.79,10.1-11.83,13.79,8.17,8.9,23.34,8.31,30.01,3.75,1.21-.83,2.59-1.88,3.12-3.15,1.73-4.1,3.53-8.24,4.53-12.55,1.23-5.29-.47-7.3-6.51-8.88-.07,1.25-.14,2.41-.19,3.57-.29,5.31-1.86,10.24-4.55,14.82-1.33,2.27-2.97,2.93-4.56,1.85-1.9-1.29-1.45-2.94-.56-4.61,2.38-4.44,4.13-9.02,3.86-14.19-.14-2.63-1-4.23-3.85-5.12-5.2-1.61-10.28-3.63-15.35-5.62-1.75-.69-3.57-1.53-4.94-2.75-1.1-.98-2.27-2.75-2.1-3.98.18-1.21,1.83-2.49,3.15-3.18.24-.12.49-.23.75-.32l17.7,2.74c-3.81.79-7.69,1.28-11.54,1.9-.01.23-.03.46-.04.69,1.29.51,2.56,1.08,3.87,1.53,7.65,2.67,15.33,5.29,22.97,7.98,5.11,1.79,7.72,5.4,8,10.7.25,4.75-1.6,8.96-3.09,13.32-2.97,8.71-9.57,12.72-18.41,13.87-8.09,1.05-15.69-.31-22.51-4.98-8.33-5.72-16.72-11.36-24.93-17.24-1.62-1.16-3.26-2.16-4.92-2.96l.91-5.87c.63.34,1.27.73,1.89,1.16h0Z"/><path class="cls-6" d="m440.97,307.01c17.38-5.79,34.08-11.34,50.82-16.9,23.22-7.69,46.39-15.43,69.61-23.13,1.17-.39,2.34-.78,3.46-1.26,4.72-1.99,8.86-4.82,9.54-10.23.78-5.84-3.07-9.5-7.5-12.32-11.15-7.11-23.66-9.11-36.65-8.81-15.48.34-29.89,5.06-44.35,10.08-30.67,10.62-61.39,21.09-92.2,31.3-3.07,1.03-6.96,1.22-10.03.29-43.86-12.71-88.6-15.68-133.97-13.24-33.05,1.75-65.62,5.99-97.07,16.46-13.92,4.63-27.26,10.51-38.65,19.87-15.72,12.95-17.81,25.07-7.83,42.55,1.22,2.09,1.31,5.01,1.31,7.6.09,36.76.44,73.52-.14,110.23-.25,14.9,5.89,25.71,17.28,34.47,16.89,13,36.51,20.4,56.95,25.51,66.84,16.6,133.33,15.92,199.2-5.11,15.53-4.97,30.18-11.88,42.94-22.25,10.62-8.61,16.16-19.14,15.97-33.2-.53-36.76-.19-73.47-.09-110.23,0-2.48.29-5.45,1.65-7.4,7.89-11.2,7.94-22.21-.29-34.23l.05-.05h0Zm-13.87,95.96c0,19.28-.19,38.56.09,57.89.14,8.18-2.73,14.75-8.81,19.92-4.04,3.41-8.33,6.67-12.95,9.3-24.24,13.88-50.92,20.5-78.33,24.64-50.63,7.65-100.67,5.06-149.88-9.2-15.87-4.58-31.11-10.76-44.54-20.54-8.81-6.43-13.39-14.41-13.19-25.85.53-37.78.29-75.52,0-113.3,0-3.89-1.65-8.18-3.8-11.54-4.92-7.55-5.11-13.68,1.03-20.5,2.82-3.16,6.04-6.43,9.73-8.33,10.76-5.45,21.52-11.2,32.86-15.14,30.38-10.51,62.12-14.17,94.1-15.58,33.25-1.46,66.35-.78,99.02,6.43,11.63,2.58,23.07,7.65,34.7,8.13,11.05.44,19.52,5.11,28.43,9.64,8.47,4.28,13,12.37,17.72,19.96,3.31,5.36.73,10.37-2.24,15.34-1.95,3.26-3.75,7.21-3.85,10.9-.39,19.28-.19,38.56-.19,57.84h.1Zm134.65-148.89c-45.03,14.9-88.5,29.26-131.97,43.58-1.22.39-2.97.68-3.99.14-7.25-3.89-14.36-8.04-22.1-12.41,33.01-11.25,65.33-22.3,98.29-33.55-1.12,6.38,2.29,9.5,7.06,10.03,6.82.83,13.92,1.17,20.69.29,3.16-.39,7.55-3.6,8.47-6.43,1.46-4.48-3.36-6.18-7.06-7.6-.68-.25-1.31-.64-3.41-1.7,12.66-.64,22.93,1.51,34.03,7.69v-.05h0Zm-31.35-.09c0,.73.05,1.46.09,2.24h-20.59v-2.24h20.5Z"/><path class="cls-6" d="m273.85,371.87c34.95-.19,69.61-2.87,103-13.68,11.78-3.8,23.46-9.06,33.74-15.82,16.07-10.56,15.72-24.49.48-36.18-12.61-9.64-27.45-14.85-42.64-18.45-64.84-15.29-129.73-15.48-194.33,1.31-11.01,2.87-21.32,8.38-31.89,12.76-1.31.53-2.48,1.46-3.65,2.29-18.79,12.8-18.84,27.9.19,40.46,16.36,10.81,35.09,15.78,54.09,19.67,26.73,5.55,53.74,7.69,81.05,7.6l-.05.05h0Zm-3.11-89.15c33.1.25,63.24,2.58,92.73,9.93,15.63,3.85,31.01,8.52,44.06,18.31,11.54,8.67,11.83,18.55-.14,26.63-8.03,5.4-17.09,9.84-26.29,13.14-25.56,9.16-52.28,12.71-79.3,14.27-40.06,2.29-79.88.58-119.07-9.06-15.24-3.75-30.18-8.38-42.99-17.77-12.22-8.96-12.41-18.8.14-27.36,7.21-4.92,15.24-8.96,23.46-11.93,35.54-12.8,72.63-15.48,107.34-16.02l.05-.14h0Z"/><line class="cls-2" x1="287.9" y1="239.46" x2="286.22" y2="240.41"/><line class="cls-2" x1="241.51" y1="245.95" x2="239.84" y2="246.9"/><line class="cls-2" x1="225.82" y1="277.29" x2="224.14" y2="278.24"/><line class="cls-3" x1="318.87" y1="343.76" x2="317.01" y2="344.83"/><line class="cls-3" x1="227.64" y1="329.54" x2="225.78" y2="330.6"/><line class="cls-3" x1="237.93" y1="322.71" x2="236.08" y2="323.78"/><line class="cls-3" x1="191.22" y1="330.07" x2="189.36" y2="331.13"/><line class="cls-3" x1="209.89" y1="311.89" x2="208.03" y2="312.95"/><line class="cls-3" x1="210.82" y1="324.84" x2="208.96" y2="325.91"/><line class="cls-3" x1="214.86" y1="343.76" x2="213.01" y2="344.83"/><line class="cls-3" x1="200.59" y1="339.28" x2="198.74" y2="340.34"/><line class="cls-3" x1="244.12" y1="288.77" x2="242.25" y2="289.84"/><line class="cls-3" x1="229.83" y1="310.82" x2="227.97" y2="311.89"/><line class="cls-3" x1="222.34" y1="297.57" x2="220.49" y2="298.64"/><line class="cls-3" x1="271.38" y1="323.78" x2="269.52" y2="324.84"/><line class="cls-3" x1="253.15" y1="323.25" x2="251.29" y2="324.31"/><line class="cls-3" x1="275.38" y1="348.9" x2="273.52" y2="349.96"/><line class="cls-3" x1="249.34" y1="311.35" x2="247.48" y2="312.41"/><line class="cls-3" x1="288.35" y1="319.27" x2="286.49" y2="320.33"/><line class="cls-3" x1="293.93" y1="349.43" x2="292.07" y2="350.5"/><line class="cls-3" x1="252.23" y1="339.28" x2="250.36" y2="340.34"/><line class="cls-3" x1="254.08" y1="355.3" x2="252.23" y2="356.37"/><line class="cls-3" x1="237.01" y1="343.23" x2="235.15" y2="344.3"/><line class="cls-2" x1="261.11" y1="251.42" x2="259.44" y2="252.38"/><line class="cls-2" x1="250.12" y1="223.56" x2="248.45" y2="224.52"/><line class="cls-2" x1="257.71" y1="267.23" x2="256.04" y2="268.19"/><line class="cls-2" x1="257.71" y1="287.12" x2="256.04" y2="288.08"/><line class="cls-3" x1="320.73" y1="304.72" x2="318.87" y2="305.78"/><line class="cls-3" x1="339.14" y1="310.29" x2="337.28" y2="311.35"/><line class="cls-3" x1="338.21" y1="338.21" x2="336.35" y2="339.28"/><line class="cls-3" x1="301.9" y1="304.18" x2="300.04" y2="305.24"/><line class="cls-3" x1="331.85" y1="324.31" x2="330" y2="325.38"/><line class="cls-3" x1="351.69" y1="324.84" x2="349.83" y2="325.91"/><line class="cls-3" x1="283.07" y1="305.24" x2="281.2" y2="306.31"/><line class="cls-3" x1="266.88" y1="304.18" x2="265.01" y2="305.24"/><line class="cls-3" x1="272.31" y1="338.74" x2="270.45" y2="339.8"/><line class="cls-3" x1="271.38" y1="259.67" x2="269.52" y2="260.73"/><line class="cls-3" x1="288.83" y1="254.58" x2="286.97" y2="255.64"/><line class="cls-3" x1="236.66" y1="265.8" x2="234.8" y2="266.86"/><line class="cls-3" x1="275.38" y1="288.77" x2="273.52" y2="289.84"/><line class="cls-3" x1="304.49" y1="288.77" x2="302.63" y2="289.84"/><line class="cls-3" x1="305.42" y1="318.73" x2="303.55" y2="319.79"/><line class="cls-3" x1="321.66" y1="318.2" x2="319.8" y2="319.27"/><line class="cls-3" x1="294.86" y1="334.34" x2="293" y2="335.41"/><line class="cls-3" x1="313.02" y1="330.6" x2="311.16" y2="331.67"/><line class="cls-2" x1="302.38" y1="274.29" x2="300.71" y2="275.24"/><line class="cls-2" x1="265.28" y1="236.94" x2="263.6" y2="237.9"/><line class="cls-2" x1="282.9" y1="276.81" x2="281.23" y2="277.77"/><line class="cls-2" x1="207.46" y1="236.46" x2="205.78" y2="237.42"/><line class="cls-2" x1="220.24" y1="251.9" x2="218.57" y2="252.85"/><path class="cls-4" d="m364.88,549.04l-15.73,20.19c-3.08,3.96-7.82,6.27-12.83,6.27h-120.93c-4.85,0-9.46-2.17-12.55-5.91l-16.96-20.55"/><path class="cls-4" d="m258.98,575.5l-14.41-11.71c-3.8-3.09-6.01-7.73-6.01-12.62v-2.13"/><path class="cls-4" d="m294.71,575.5l14.41-11.71c3.8-3.09,6.01-7.73,6.01-12.62v-2.13"/></svg>