<?xml version="1.0" encoding="UTF-8"?><svg id="Layer_1" xmlns="http://www.w3.org/2000/svg" viewBox="0 0 841 1117"><defs><style>.cls-1,.cls-2,.cls-3{fill:none;}.cls-1,.cls-4,.cls-5,.cls-6,.cls-7{stroke-width:0px;}.cls-2{stroke:#493424;stroke-width:12.5px;}.cls-2,.cls-3{stroke-linecap:round;stroke-linejoin:round;}.cls-3{stroke:#741e17;stroke-width:8px;}.cls-5{fill:#493424;}.cls-6{fill:#c07d4d;}.cls-7{fill:#741e17;}</style></defs><path class="cls-1" d="m137.4,281.62c16.89,53.35,33.85,106.95,50.6,159.9,67.5-21.37,135.44-42.87,203.19-64.32-16.81-53.06-33.73-106.48-50.65-159.89-67.93,21.51-135.89,43.02-203.14,64.32Zm176.92-32.84c2.89-4.94,12-7.82,17.28-5.46,4.03,1.8,5.32,6.57,2.81,10.43-3.02,4.64-11.72,7.27-16.8,5.08-3.97-1.71-5.48-6.31-3.29-10.04Zm6.73,54.09c-3.21,4-10.48,6.35-15.39,4.96-4.52-1.28-6.68-5.95-4.65-10.03,2.67-5.35,12.89-8.5,18.04-5.56,3.89,2.22,4.8,7.11,1.99,10.63Zm3.72,15.61c2.9.38,5.14,1.9,6.12,4.74,1.02,2.97.12,5.57-2.06,7.77-3.99,4.04-11.72,5.68-16.06,3.39-4.65-2.45-5.32-8.15-1.15-11.86,3.69-3.29,8.18-4.69,13.15-4.04Zm-43.88-.81c3.78-4.17,11.76-6.03,16.23-3.79,4.18,2.1,5.46,7.18,2.4,10.71-3.93,4.53-9.16,6.26-14.98,5.13-5.88-1.15-7.69-7.59-3.65-12.05Zm-3.05,28.96c-3.02,3.79-10.45,6.19-15.1,4.86-4.68-1.34-6.84-5.74-4.85-9.91,2.58-5.42,12.61-8.66,17.91-5.79,4.08,2.21,5,7.11,2.04,10.84Zm15.19-77.01c2.97-4.36,11.34-7,16.3-5.14,4.15,1.56,5.87,5.96,3.86,9.87-2.68,5.23-12.12,8.34-17.45,5.75-4.1-1.99-5.31-6.65-2.7-10.48Zm-21.91,22.61c2.89-5.06,12.43-7.96,17.59-5.35,3.96,2.01,5.07,6.91,2.39,10.53-3.19,4.29-10.85,6.75-15.94,5.11-4.41-1.42-6.32-6.3-4.03-10.29Zm-4.15,16.18c4,1.99,5.21,6.86,2.61,10.51-3.03,4.23-10.94,6.85-15.92,5.26-4.45-1.42-6.43-6.24-4.21-10.23,2.83-5.09,12.38-8.1,17.53-5.54Zm-60.64,49.31c2.67-5.16,12.08-8.29,17.38-5.77,4.69,2.23,5.62,8.04,1.73,11.79-3.59,3.45-8.1,4.85-12.97,4.43-5.66-.49-8.58-5.71-6.13-10.45Zm-4.42-17.17c-4.42-1.43-6.41-6.29-4.2-10.26,2.89-5.2,12.69-8.11,17.86-5.3,3.77,2.05,4.8,6.76,2.26,10.32-3.01,4.23-10.95,6.84-15.92,5.23Zm26.64-5.65c3.39-4.7,12-7.05,16.86-4.62,4.18,2.09,5.28,7.02,2.4,10.74-3.07,3.96-10.51,6.4-15.37,5.03-5.18-1.45-7.04-6.79-3.89-11.15Zm12.24-48.01c2.72-5.26,12.52-8.35,17.72-5.59,3.99,2.12,5,6.77,2.31,10.57-3,4.22-11.06,6.74-15.93,4.97-4.42-1.6-6.19-5.9-4.09-9.94Zm-5.27,15.84c5.28,1.61,6.98,7.23,3.48,11.5-3.66,4.47-12.19,6.59-16.74,4.17-3.95-2.11-5.04-6.96-2.38-10.58,3.02-4.1,10.7-6.6,15.64-5.1Zm-24.72-21.01c2.77-5.07,12.28-8.08,17.52-5.54,4.23,2.05,5.22,7.2,2.13,11.07-3.19,4.01-10.99,6.26-15.8,4.55-4.24-1.5-6.01-6.13-3.85-10.09Zm-21.8,21.73c2.64-5.33,12.46-8.56,17.72-5.83,4.47,2.31,5.32,8,1.48,11.66-3.8,3.61-8.5,5.17-13.72,4.28-5.17-.88-7.66-5.7-5.48-10.1Zm-29.94-5.31c2.75-5.09,12.25-8.12,17.48-5.59,4.39,2.13,5.47,7.63,1.94,11.28-4.04,4.18-9.13,5.76-14.84,4.53-4.74-1.02-6.86-6.02-4.59-10.22Zm12.73,37.19c-4.44-1.47-6.39-6.25-4.18-10.25,2.81-5.08,12.38-8.07,17.53-5.46,4.03,2.04,5.19,6.78,2.54,10.48-3.04,4.26-10.95,6.86-15.9,5.22Zm8.97,27.13c-5.62-1.65-7.29-7.66-3.35-12,3.94-4.32,12.02-6.12,16.54-3.67,3.9,2.11,4.91,7.02,2.18,10.59-3,3.92-10.68,6.46-15.37,5.08Zm4.05,16.73c2.73-5.05,11.94-8.09,17.2-5.69,4.63,2.12,5.75,7.78,2.05,11.52-3.81,3.84-8.61,5.42-13.96,4.57-5.3-.84-7.73-5.88-5.29-10.41Zm28.27,32.38c-3.14,4.06-10.95,6.36-15.82,4.66-4.34-1.52-6.11-6.06-3.92-10.06,2.83-5.17,12.35-8.13,17.58-5.48,4.07,2.06,5.08,7.12,2.17,10.88Zm22.57-22.9c-2.71,5.37-12.4,8.54-17.74,5.81-3.96-2.02-5.06-6.96-2.36-10.62,3.15-4.27,11.06-6.7,16.06-4.94,4.22,1.49,6.02,5.84,4.04,9.75Zm.76-25.69c2.65-5.2,12.19-8.35,17.47-5.77,4.35,2.13,5.58,7.39,2.27,11.03-3.84,4.23-8.87,5.9-14.47,4.94-5.14-.87-7.52-5.8-5.27-10.2Zm29.14,31.02c-2.67,5.06-12.42,8.14-17.48,5.54-4.47-2.29-5.41-7.95-1.63-11.59,4.05-3.91,9.07-5.45,14.63-4.22,4.74,1.05,6.76,5.95,4.48,10.27Zm21.42-20.87c-2.99,4.55-11.3,7.24-16.46,5.32-4.23-1.57-5.94-6.18-3.77-10.14,2.75-5.02,12.43-8.02,17.56-5.44,3.83,1.92,5.05,6.64,2.67,10.26Zm2-27.82c3.22-4.46,11.98-6.79,16.72-4.43,4.43,2.2,5.46,7.66,1.9,11.32-3.88,3.99-8.8,5.57-14.27,4.56-5.69-1.06-7.74-6.74-4.35-11.44Zm27.83,33.08c-3.19,4.7-12.37,7.19-17.19,4.66-4.17-2.19-5.15-7.56-1.77-11.1,3.91-4.1,8.86-5.77,14.46-4.69,5.48,1.06,7.61,6.54,4.5,11.13Zm22.07-22c-2.83,4.85-11.69,7.77-16.93,5.59-4.41-1.83-5.81-7.06-2.93-10.87,3.23-4.28,10.92-6.69,15.97-5.01,4.44,1.48,6.24,6.26,3.88,10.29Zm27.22-4.87c4,2.09,5.06,6.74,2.41,10.55-2.99,4.31-11.32,6.87-16.26,5.01-4.09-1.55-5.84-6-3.87-9.84,2.69-5.25,12.54-8.42,17.72-5.71Zm-8.51-26.96c4.25,2.21,5.24,7.49,1.83,11.12-3.82,4.06-8.76,5.64-14.22,4.75-5.15-.84-7.57-5.71-5.37-10.16,2.64-5.34,12.42-8.49,17.76-5.71Zm-6.43-16.29c-3.94,4.52-9.15,6.21-14.98,5.02-5.58-1.14-7.46-7.06-3.93-11.53,3.54-4.48,12-6.62,16.69-4.22,4.16,2.13,5.34,7.14,2.22,10.73Zm-7.62-28.27c-2.6,5.18-12.53,8.35-17.77,5.68-3.94-2.01-5.1-6.96-2.47-10.56,3.17-4.34,11.3-6.81,16.31-4.97,4.05,1.5,5.86,6.01,3.93,9.85Z"/><path class="cls-1" d="m111.17,289.24c-6.71,1.33-8.85,5.55-9.71,11.64-2.52,18.02-5.39,35.99-7.93,54.01-.36,2.57-.11,5.43.64,7.92,3.76,12.45,7.74,24.83,11.75,37.21.53,1.62,1.43,3.26,2.58,4.51,8.86,9.67,17.81,19.25,26.77,28.83,5.08,5.43,10.06,10.99,15.47,16.08,1.65,1.56,4.81,2.83,6.88,2.38,6.08-1.32,11.97-3.58,17.82-5.43-17.06-53.85-34-107.34-51.21-161.68-4.17,1.49-8.49,3.63-13.05,4.53Z"/><path class="cls-1" d="m387.44,243.96c-2.75-8.68-5.43-17.38-8.26-26.04-2.21-6.76-7.86-10.37-14.1-8.84-4.23,1.04-8.35,2.53-12.37,3.77,17.08,53.97,34.02,107.48,51.09,161.44,3.11-1.05,6.44-2.22,9.8-3.31,8.29-2.69,11.35-8.49,8.73-16.75-11.63-36.76-23.27-73.52-34.9-110.27Z"/><path class="cls-1" d="m80.56,367.23c-37.29,10.22-74.57,20.44-111.86,30.67-23.03,6.32-46.06,12.62-69.08,19-11.06,3.06-18.52,11.74-19.03,22.54-.99,21.13,17.75,33.66,36.67,26.65,52.1-19.32,104.51-37.81,156.79-56.64,6.64-2.39,13.28-4.81,19.87-7.2-3.8-11.93-7.49-23.51-11.32-35.52-.7.17-1.38.32-2.04.5Z"/><path class="cls-6" d="m284.29,362.85c-5.13-2.58-14.81.42-17.56,5.44-2.17,3.96-.46,8.57,3.77,10.14,5.16,1.92,13.47-.77,16.46-5.32,2.38-3.63,1.16-8.34-2.67-10.26Z"/><path class="cls-6" d="m334.98,346.09c-5.05-1.68-12.74.73-15.97,5.01-2.88,3.81-1.47,9.04,2.93,10.87,5.24,2.18,14.1-.74,16.93-5.59,2.36-4.04.55-8.82-3.88-10.29Z"/><path class="cls-6" d="m219.88,307.81c-2.66,3.62-1.57,8.47,2.38,10.58,4.54,2.42,13.08.29,16.74-4.17,3.5-4.27,1.8-9.89-3.48-11.5-4.94-1.51-12.62,1-15.64,5.1Z"/><path class="cls-6" d="m187.69,330.09c2.64-3.7,1.49-8.44-2.54-10.48-5.15-2.6-14.72.38-17.53,5.46-2.21,4-.26,8.78,4.18,10.25,4.94,1.64,12.85-.96,15.9-5.22Z"/><path class="cls-6" d="m275.16,302.51c5.09,1.64,12.76-.82,15.94-5.11,2.69-3.62,1.57-8.52-2.39-10.53-5.16-2.62-14.7.28-17.59,5.35-2.28,4-.37,8.87,4.03,10.29Z"/><path class="cls-6" d="m323.29,275.1c-2.63,3.6-1.47,8.54,2.47,10.56,5.24,2.68,15.17-.49,17.77-5.68,1.93-3.84.13-8.35-3.93-9.85-5.01-1.85-13.14.63-16.31,4.97Z"/><path class="cls-6" d="m196.14,357.37c2.73-3.57,1.72-8.47-2.18-10.59-4.52-2.45-12.61-.65-16.54,3.67-3.95,4.34-2.27,10.35,3.35,12,4.69,1.38,12.37-1.16,15.37-5.08Z"/><path class="cls-6" d="m217.83,335.3c2.54-3.57,1.51-8.28-2.26-10.32-5.17-2.81-14.97.1-17.86,5.3-2.21,3.97-.22,8.83,4.2,10.26,4.97,1.61,12.91-1,15.92-5.23Z"/><path class="cls-6" d="m249.45,313.93c-2.22,4-.24,8.81,4.21,10.23,4.98,1.59,12.89-1.03,15.92-5.26,2.6-3.64,1.4-8.51-2.61-10.51-5.15-2.57-14.7.45-17.53,5.54Z"/><path class="cls-6" d="m319.06,292.24c-5.15-2.95-15.38.2-18.04,5.56-2.04,4.09.13,8.76,4.65,10.03,4.91,1.39,12.18-.96,15.39-4.96,2.81-3.51,1.9-8.41-1.99-10.63Z"/><path class="cls-6" d="m178.49,303.82c3.52-3.65,2.45-9.15-1.94-11.28-5.23-2.54-14.74.5-17.48,5.59-2.27,4.2-.14,9.2,4.59,10.22,5.7,1.23,10.8-.35,14.84-4.53Z"/><path class="cls-6" d="m244.89,296.81c4.87,1.77,12.93-.75,15.93-4.97,2.7-3.79,1.68-8.45-2.31-10.57-5.2-2.76-15,.34-17.72,5.59-2.1,4.05-.33,8.34,4.09,9.94Z"/><path class="cls-6" d="m284.55,329.71c5.82,1.13,11.05-.6,14.98-5.13,3.06-3.53,1.78-8.61-2.4-10.71-4.47-2.25-12.45-.38-16.23,3.79-4.04,4.46-2.22,10.9,3.65,12.05Z"/><path class="cls-6" d="m214.66,291.78c4.81,1.71,12.61-.54,15.8-4.55,3.09-3.88,2.09-9.03-2.13-11.07-5.24-2.54-14.75.47-17.52,5.54-2.16,3.95-.39,8.58,3.85,10.09Z"/><path class="cls-6" d="m261.06,383.72c-5.57-1.24-10.58.31-14.63,4.22-3.77,3.64-2.84,9.3,1.63,11.59,5.07,2.6,14.81-.48,17.48-5.54,2.28-4.31.26-9.22-4.48-10.27Z"/><path class="cls-6" d="m307.58,352.19c3.56-3.67,2.53-9.12-1.9-11.32-4.73-2.35-13.5-.03-16.72,4.43-3.39,4.7-1.34,10.39,4.35,11.44,5.46,1.01,10.39-.57,14.27-4.56Z"/><path class="cls-6" d="m348.36,357.22c-1.97,3.84-.22,8.3,3.87,9.84,4.94,1.87,13.27-.7,16.26-5.01,2.65-3.82,1.58-8.46-2.41-10.55-5.18-2.71-15.03.47-17.72,5.71Z"/><path class="cls-6" d="m339.82,330.26c-2.2,4.44.22,9.32,5.37,10.16,5.46.89,10.39-.69,14.22-4.75,3.41-3.62,2.42-8.91-1.83-11.12-5.33-2.78-15.11.37-17.76,5.71Z"/><path class="cls-6" d="m204.06,385.02c3.7-3.74,2.59-9.4-2.05-11.52-5.26-2.41-14.48.64-17.2,5.69-2.44,4.53,0,9.56,5.29,10.41,5.34.85,10.15-.73,13.96-4.57Z"/><path class="cls-6" d="m256.15,368.23c3.3-3.63,2.08-8.9-2.27-11.03-5.28-2.58-14.81.56-17.47,5.77-2.25,4.4.13,9.33,5.27,10.2,5.6.95,10.63-.72,14.47-4.94Z"/><path class="cls-6" d="m210.91,400.68c-5.23-2.65-14.75.32-17.58,5.48-2.19,4-.42,8.54,3.92,10.06,4.87,1.7,12.68-.6,15.82-4.66,2.91-3.76,1.9-8.82-2.17-10.88Z"/><path class="cls-6" d="m317.62,258.82c5.08,2.19,13.77-.44,16.8-5.08,2.51-3.85,1.22-8.63-2.81-10.43-5.28-2.35-14.39.53-17.28,5.46-2.18,3.74-.68,8.33,3.29,10.04Z"/><path class="cls-6" d="m275.8,335.78c-5.3-2.88-15.33.36-17.91,5.79-1.98,4.17.17,8.57,4.85,9.91,4.64,1.33,12.08-1.06,15.1-4.86,2.96-3.73,2.04-8.62-2.04-10.84Z"/><path class="cls-6" d="m231.61,378.91c-5-1.76-12.91.68-16.06,4.94-2.7,3.66-1.6,8.6,2.36,10.62,5.34,2.73,15.03-.44,17.74-5.81,1.98-3.92.18-8.27-4.04-9.75Z"/><path class="cls-6" d="m312.29,367.25c-5.6-1.08-10.55.59-14.46,4.69-3.38,3.54-2.4,8.91,1.77,11.1,4.82,2.53,14.01.04,17.19-4.66,3.11-4.59.99-10.07-4.5-11.13Z"/><path class="cls-6" d="m194.48,313.53c5.22.89,9.92-.66,13.72-4.28,3.84-3.65,2.99-9.35-1.48-11.66-5.27-2.72-15.09.51-17.72,5.83-2.18,4.4.31,9.22,5.48,10.1Z"/><path class="cls-6" d="m212.47,368.15c4.87.42,9.39-.97,12.97-4.43,3.89-3.74,2.96-9.55-1.73-11.79-5.29-2.52-14.71.6-17.38,5.77-2.45,4.74.47,9.96,6.13,10.45Z"/><path class="cls-6" d="m232.44,346.04c4.86,1.37,12.3-1.07,15.37-5.03,2.88-3.72,1.78-8.65-2.4-10.74-4.86-2.44-13.47-.08-16.86,4.62-3.15,4.36-1.29,9.7,3.89,11.15Z"/><path class="cls-6" d="m332.23,301.76c-3.53,4.47-1.65,10.39,3.93,11.53,5.83,1.19,11.04-.5,14.98-5.02,3.13-3.58,1.95-8.6-2.22-10.73-4.69-2.4-13.15-.25-16.69,4.22Z"/><path class="cls-6" d="m312.77,334.38c4.34,2.29,12.07.65,16.06-3.39,2.18-2.21,3.08-4.8,2.06-7.77-.98-2.84-3.22-4.36-6.12-4.74-4.97-.65-9.46.76-13.15,4.04-4.17,3.72-3.49,9.41,1.15,11.86Z"/><path class="cls-6" d="m295.73,280.08c5.33,2.59,14.77-.52,17.45-5.75,2.01-3.91.28-8.31-3.86-9.87-4.96-1.86-13.33.78-16.3,5.14-2.6,3.83-1.4,8.49,2.7,10.48Z"/><path class="cls-1" d="m301.72,124.95c6.81-1.04,11.52-.59,15.93,2.53,11.58,8.19,20.56,18.3,19.11,33.31-1.55,16.16-12.27,26.23-25.83,34.18,10.42-24.89,6.52-47.93-9.22-70.01Z"/><path class="cls-1" d="m111.17,289.24c-6.71,1.33-8.85,5.55-9.71,11.64-2.52,18.02-5.39,35.99-7.93,54.01-.36,2.57-.11,5.43.64,7.92,3.76,12.45,7.74,24.83,11.75,37.21.53,1.62,1.43,3.26,2.58,4.51,8.86,9.67,17.81,19.25,26.77,28.83,5.08,5.43,10.06,10.99,15.47,16.08,1.65,1.56,4.81,2.83,6.88,2.38,6.08-1.32,11.97-3.58,17.82-5.43-17.06-53.85-34-107.34-51.21-161.68-4.17,1.49-8.49,3.63-13.05,4.53Z"/><path class="cls-1" d="m310.94,194.97c13.55-7.94,24.27-18.02,25.83-34.18,1.44-15.01-7.53-25.12-19.11-33.31-4.42-3.12-9.12-3.57-15.93-2.53,15.74,22.08,19.64,45.12,9.22,70.01Z"/><path class="cls-1" d="m80.56,367.23c-37.29,10.22-74.57,20.44-111.86,30.67-23.03,6.32-46.06,12.62-69.08,19-11.06,3.06-18.52,11.74-19.03,22.54-.99,21.13,17.75,33.66,36.67,26.65,52.1-19.32,104.51-37.81,156.79-56.64,6.64-2.39,13.28-4.81,19.87-7.2-3.8-11.93-7.49-23.51-11.32-35.52-.7.17-1.38.32-2.04.5Z"/><path class="cls-1" d="m137.4,281.62c16.89,53.35,33.85,106.95,50.6,159.9,67.5-21.37,135.44-42.87,203.19-64.32-16.81-53.06-33.73-106.48-50.65-159.89-67.93,21.51-135.89,43.02-203.14,64.32Z"/><path class="cls-1" d="m387.44,243.96c-2.75-8.68-5.43-17.38-8.26-26.04-2.21-6.76-7.86-10.37-14.1-8.84-4.23,1.04-8.35,2.53-12.37,3.77,17.08,53.97,34.02,107.48,51.09,161.44,3.11-1.05,6.44-2.22,9.8-3.31,8.29-2.69,11.35-8.49,8.73-16.75-11.63-36.76-23.27-73.52-34.9-110.27Z"/><path class="cls-4" d="m174.46,256.96c-.25.08-.5.16-.75.24.22.1.44.2.66.3l.08-.54Z"/><path class="cls-1" d="m80.56,367.23c-37.29,10.22-74.57,20.44-111.86,30.67-23.03,6.32-46.06,12.62-69.08,19-11.06,3.06-18.52,11.74-19.03,22.54-.99,21.13,17.75,33.66,36.67,26.65,52.1-19.32,104.51-37.81,156.79-56.64,6.64-2.39,13.28-4.81,19.87-7.2-3.8-11.93-7.49-23.51-11.32-35.52-.7.17-1.38.32-2.04.5Z"/><path class="cls-1" d="m186.47,273.46v-7.38c-16.39,5.19-32.75,10.37-49.06,15.53,16.89,53.35,33.85,106.95,50.6,159.9,67.5-21.37,135.44-42.87,203.19-64.32-16.81-53.06-33.73-106.48-50.65-159.89-26.42,8.37-52.85,16.73-79.23,25.09v31.08h-74.85Z"/><path class="cls-1" d="m111.17,289.24c-6.71,1.33-8.85,5.55-9.71,11.64-2.52,18.02-5.39,35.99-7.93,54.01-.36,2.57-.11,5.43.64,7.92,3.76,12.45,7.74,24.83,11.75,37.21.53,1.62,1.43,3.26,2.58,4.51,8.86,9.67,17.81,19.25,26.77,28.83,5.08,5.43,10.06,10.99,15.47,16.08,1.65,1.56,4.81,2.83,6.88,2.38,6.08-1.32,11.97-3.58,17.82-5.43-17.06-53.85-34-107.34-51.21-161.68-4.17,1.49-8.49,3.63-13.05,4.53Z"/><path class="cls-1" d="m387.44,243.96c-2.75-8.68-5.43-17.38-8.26-26.04-2.21-6.76-7.86-10.37-14.1-8.84-4.23,1.04-8.35,2.53-12.37,3.77,17.08,53.97,34.02,107.48,51.09,161.44,3.11-1.05,6.44-2.22,9.8-3.31,8.29-2.69,11.35-8.49,8.73-16.75-11.63-36.76-23.27-73.52-34.9-110.27Z"/><path class="cls-6" d="m433.82,351.36c-14.46-45.8-28.98-91.59-43.53-137.36-4.29-13.48-17.19-19.95-30.74-15.65-32.74,10.38-65.49,20.74-98.24,31.11v12.94c26.39-8.35,52.81-16.72,79.23-25.09,16.92,53.41,33.84,106.83,50.65,159.89-67.75,21.45-135.68,42.95-203.19,64.32-16.76-52.95-33.72-106.54-50.6-159.9,16.32-5.17,32.68-10.35,49.06-15.53v-12.93c-4,1.27-8.01,2.54-12.01,3.81l-.08.54c-.22-.11-.44-.2-.66-.3-23.08,7.32-46.17,14.64-69.27,21.9-5.67,1.78-10.06,4.97-12.06,10.58-1.42,3.97-2.29,8.19-2.94,12.37-2.56,16.35-4.99,32.73-7.32,49.12-.37,2.57-1.3,3.8-3.91,4.51-25.47,6.88-50.89,13.92-76.33,20.9-35.02,9.61-70.04,19.21-105.07,28.8-10.72,2.93-18.81,9.15-22.97,16.98-8.13,15.67-5.83,33.31,4.58,45.17,10.15,11.57,25.93,15.54,40.76,10.21,58.99-21.22,117.98-42.44,176.94-63.74,2.73-.99,4.39-.72,6.41,1.49,11.97,13.08,24.18,25.95,36.17,39.02,7.46,8.13,15.52,11.27,26.88,7.63,83.91-26.91,167.96-53.39,251.97-80,13.8-4.37,20.6-17.04,16.27-30.77Zm-359.77,58.1c-52.28,18.82-104.69,37.32-156.79,56.64-18.92,7.01-37.66-5.52-36.67-26.65.51-10.8,7.97-19.48,19.03-22.54,23.02-6.37,46.05-12.68,69.08-19,37.28-10.23,74.57-20.45,111.86-30.67.66-.18,1.34-.33,2.04-.5,3.83,12.01,7.52,23.6,11.32,35.52-6.59,2.39-13.23,4.81-19.87,7.2Zm83.56,42.37c-2.07.45-5.23-.82-6.88-2.38-5.41-5.09-10.38-10.65-15.47-16.08-8.96-9.58-17.91-19.17-26.77-28.83-1.15-1.25-2.05-2.89-2.58-4.51-4.01-12.37-7.99-24.76-11.75-37.21-.75-2.49-1-5.35-.64-7.92,2.54-18.02,5.41-35.99,7.93-54.01.85-6.09,3-10.31,9.71-11.64,4.56-.91,8.88-3.04,13.05-4.53,17.21,54.34,34.15,107.83,51.21,161.68-5.85,1.85-11.73,4.11-17.82,5.43Zm256-80.83c-3.36,1.09-6.7,2.26-9.8,3.31-17.08-53.96-34.01-107.47-51.09-161.44,4.02-1.24,8.14-2.74,12.37-3.77,6.24-1.53,11.89,2.08,14.1,8.84,2.82,8.66,5.51,17.36,8.26,26.04,11.64,36.76,23.28,73.51,34.9,110.27,2.61,8.26-.45,14.06-8.73,16.75Z"/><path class="cls-6" d="m173.98,246.92c-10.76-5.88-21.82-3.67-32.88-.84-6.03,1.54-12.08,3.07-18.03,4.89-14.32,4.37-28.59,8.9-42.88,13.38-2.23.7-4.29,1.62-6.34-.74-10.03-11.51-15.22-24.49-12.82-39.69.24-1.5,1.81-3.38,3.25-3.98,5.53-2.33,11.25-4.2,17.08-6.31,1.05,1.05,2.34,2.01,3.19,3.25,5.65,8.27,11.29,16.55,16.74,24.95,1.72,2.66,2.88,5.8,6.98,4.29,2.94-1.09,3.27-3.91,1-8.38-1.66-3.26-3.32-6.55-5.37-9.57-4.3-6.35-8.85-12.54-13.07-18.49,12.38-8.81,24.76-17.62,37.36-26.59,12.97,9.84,24.7,21.19,29.8,37.61.17.55.28,1.35.67,1.55,1.73.9,3.87,2.57,5.24,2.14,1.4-.44,2.61-2.93,2.92-4.7.26-1.51-.8-3.29-1.4-4.91-4.79-12.99-13.49-23.24-23.88-32.28-2.44-2.13-4.94-4.2-6.88-5.85,10.36-13.72,20.38-26.99,30.54-40.44,2.39,1.64,4.4,2.82,6.18,4.27,16.99,13.79,28.34,31.06,33.69,52.03.33,1.3.17,3,.97,3.83,1.31,1.36,3.42,3.16,4.84,2.92,1.45-.25,3.16-2.61,3.52-4.3.4-1.91-.41-4.15-.97-6.17-6.34-22.72-18.83-41.51-37.75-56.19-1.33-1.03-2.62-2.11-4.41-3.56,4.34-4.11,8.04-8.35,12.48-11.65,6.01-4.46,12.34-8.63,18.99-12.1,6.03-3.15,11.89-2.07,17.11,2.95,5.58,5.36,11.56,10.37,17.62,15.22,2.73,2.19,2.96,4.52,1.53,7.03-3.22,5.63-6.69,11.13-10.17,16.6-1.13,1.77-3.04,3.15-3.8,5.02-.61,1.51-.71,4.05.21,5.11.94,1.09,3.42,1.35,5.16,1.21,1.42-.11,2.75-1.33,4.09-2.1,6.18-3.58,12.36-7.18,18.79-10.92,9.42,15.28,13.27,30.91,6.71,47.86-1.52,3.92-3.39,7.71-4.87,11.64-.99,2.65-2.7,3.81-5.52,4.2-6.76.92-13.49,2.05-20.21,3.19-2.06.35-4.26.57-6.17,1.27l27.25,4.22c16.01-3.29,32.1-6.35,47.94-10.3,16.29-4.06,29.22-13.23,38.33-27.22,14.8-22.74,5.86-52.01-19.37-63.58-7.46-3.42-15.11-3.55-22.91-1.64-12.46,3.06-23.49,9.13-34.33,15.58-4.64,2.76-9.2,5.65-14.75,9.06,1.16-3.59,2.08-6.13,2.8-8.73,1.57-5.71.23-10.3-4.82-14.17-6.01-4.6-11.79-9.55-17.21-14.8-8.21-7.95-17.52-9.27-27.39-4.58-6.6,3.13-12.96,7.07-18.67,11.57-13.91,10.96-24.99,24.48-34.85,39-16.88,24.86-39.11,43.8-66.56,56.78-5.94,2.81-12.2,5.12-18.54,6.9-4.64,1.3-7.02,3.88-7.59,8.23-.56,4.34-1.29,8.76-1.01,13.09.96,14.66,6.73,27.36,17.19,38.07,3.35,3.43,6.62,4.3,11.43,2.74,18.68-6.04,37.52-11.64,56.31-17.37,2.42-.74,4.98-1.04,7.35-1.9,10.08-3.64,19.33-2.92,28.12,1.15.25-.08.5-.16.75-.24l1.32-8.49Zm141.88-120.98c11.58,8.19,20.56,18.3,19.11,33.31-1.55,16.16-12.27,26.23-25.83,34.18,10.42-24.89,6.52-47.93-9.22-70.01,6.81-1.04,11.52-.59,15.93,2.53Zm-26.59-.65c16.39,16.16,20.96,40.83,12.01,61.88-5.24,12.34-5.23,12.39-18.28,15.45-5.9,1.38-11.85,2.52-19.28,4.09,12.82-23.3,10.36-44.74-3.13-66.58,10.16-5.25,19.54-10.11,28.68-14.83Z"/><path class="cls-7" d="m176.9,248.71c7.07-9.59,10.64-19.29,11.03-30.11.03-.95-.05-1.91-.04-2.87.03-2.61,1.12-4.55,3.96-4.75,3.11-.22,5.05,1.65,4.84,4.5-.46,6.25-.64,12.68-2.39,18.62-1.91,6.49-5.45,12.52-8.53,19.29,7.71,5.39,15.93,11.13,24.32,16.99,8.7-4.6,14.45-11.64,18.97-19.82.65-1.17.9-2.84,1.88-3.48,1.58-1.05,3.82-2.28,5.42-1.91,2.55.59,3.31,3.06,2.42,5.6-.44,1.26-1.06,2.45-1.66,3.65-4.32,8.51-10.46,15.55-18.22,21.23,12.58,13.71,35.93,12.79,46.2,5.78,1.87-1.28,3.98-2.9,4.8-4.85,2.67-6.31,5.43-12.69,6.97-19.32,1.89-8.14-.72-11.24-10.03-13.67-.11,1.92-.21,3.71-.3,5.5-.44,8.17-2.87,15.76-7,22.82-2.04,3.49-4.58,4.51-7.02,2.85-2.93-1.99-2.24-4.52-.86-7.09,3.67-6.83,6.36-13.88,5.94-21.84-.22-4.05-1.54-6.52-5.92-7.88-8.01-2.48-15.82-5.59-23.64-8.65-2.7-1.06-5.5-2.35-7.6-4.24-1.69-1.51-3.5-4.23-3.23-6.12.27-1.87,2.82-3.84,4.85-4.9.37-.19.76-.35,1.16-.5l27.25,4.22c-5.87,1.21-11.84,1.97-17.76,2.93-.02.35-.04.71-.06,1.06,1.98.79,3.94,1.66,5.96,2.36,11.78,4.11,23.6,8.15,35.37,12.28,7.87,2.76,11.88,8.31,12.31,16.47.39,7.31-2.46,13.8-4.75,20.5-4.58,13.41-14.73,19.58-28.35,21.35-12.45,1.62-24.16-.48-34.65-7.67-12.83-8.8-25.74-17.49-38.38-26.55-2.49-1.79-5.02-3.32-7.58-4.56l1.4-9.03c.97.53,1.95,1.12,2.91,1.79Z"/><path class="cls-5" d="m624.12,680.85c24.07-8.02,47.19-15.71,70.38-23.4,32.16-10.65,64.24-21.37,96.4-32.03,1.62-.54,3.24-1.08,4.79-1.75,6.54-2.76,12.27-6.68,13.21-14.16,1.08-8.09-4.25-13.15-10.38-17.06-15.44-9.84-32.76-12.61-50.76-12.2-21.44.47-41.39,7.01-61.41,13.96-42.47,14.7-85.01,29.2-127.68,43.35-4.25,1.42-9.64,1.69-13.89.4-60.74-17.6-122.69-21.71-185.52-18.34-45.77,2.43-90.87,8.29-134.42,22.79-19.28,6.41-37.75,14.56-53.53,27.51-21.77,17.94-24.67,34.72-10.85,58.93,1.69,2.9,1.82,6.94,1.82,10.52.13,50.91.61,101.81-.2,152.65-.34,20.63,8.16,35.6,23.93,47.74,23.39,18,50.56,28.25,78.87,35.33,92.56,22.99,184.64,22.05,275.85-7.08,21.5-6.88,41.8-16.45,59.46-30.81,14.7-11.93,22.38-26.5,22.11-45.98-.74-50.91-.27-101.74-.13-152.65,0-3.44.4-7.55,2.29-10.25,10.92-15.51,10.99-30.75-.4-47.4l.07-.07Zm-19.21,132.89c0,26.7-.27,53.4.13,80.17.2,11.33-3.78,20.43-12.2,27.58-5.6,4.72-11.53,9.24-17.93,12.88-33.57,19.22-70.51,28.39-108.47,34.12-70.11,10.59-139.41,7.01-207.56-12.74-21.98-6.34-43.08-14.9-61.68-28.45-12.2-8.9-18.54-19.96-18.27-35.8.74-52.32.4-104.58,0-156.9,0-5.39-2.29-11.33-5.26-15.98-6.81-10.45-7.08-18.95,1.42-28.39,3.91-4.38,8.36-8.9,13.48-11.53,14.9-7.55,29.8-15.51,45.5-20.97,42.07-14.56,86.02-19.62,130.31-21.58,46.04-2.02,91.88-1.08,137.12,8.9,16.11,3.57,31.95,10.59,48.06,11.26,15.3.61,27.03,7.08,39.37,13.35,11.73,5.93,18,17.13,24.54,27.64,4.58,7.42,1.01,14.36-3.1,21.24-2.7,4.52-5.19,9.98-5.33,15.1-.54,26.7-.27,53.4-.27,80.1h.13Zm186.46-206.19c-62.36,20.63-122.56,40.52-182.75,60.35-1.69.54-4.11.94-5.53.2-10.04-5.39-19.89-11.13-30.61-17.19,45.71-15.58,90.47-30.88,136.11-46.46-1.55,8.83,3.17,13.15,9.77,13.89,9.44,1.15,19.28,1.62,28.65.4,4.38-.54,10.45-4.99,11.73-8.9,2.02-6.2-4.65-8.56-9.77-10.52-.94-.34-1.82-.88-4.72-2.36,17.53-.88,31.75,2.09,47.12,10.65v-.07Zm-43.41-.13c0,1.01.07,2.02.13,3.1h-28.52v-3.1s28.38,0,28.38,0Z"/><path class="cls-5" d="m392.69,770.66c48.4-.27,96.4-3.98,142.64-18.95,16.31-5.26,32.49-12.54,46.72-21.91,22.25-14.63,21.77-33.91.67-50.1-17.46-13.35-38.02-20.56-59.05-25.55-89.79-21.17-179.65-21.44-269.11,1.82-15.24,3.98-29.53,11.6-44.16,17.67-1.82.74-3.44,2.02-5.06,3.17-26.02,17.73-26.09,38.63.27,56.03,22.65,14.97,48.6,21.85,74.9,27.24,37.01,7.69,74.42,10.65,112.24,10.52l-.07.07Zm-4.31-123.46c45.84.34,87.57,3.57,128.42,13.75,21.64,5.33,42.94,11.8,61.01,25.35,15.98,12,16.38,25.69-.2,36.88-11.12,7.48-23.66,13.62-36.4,18.2-35.39,12.68-72.4,17.6-109.81,19.76-55.48,3.17-110.62.81-164.89-12.54-21.1-5.19-41.8-11.6-59.53-24.61-16.92-12.41-17.19-26.03.2-37.89,9.98-6.81,21.1-12.41,32.49-16.52,49.21-17.73,100.58-21.44,148.64-22.18l.07-.2Z"/><line class="cls-3" x1="371.24" y1="432.75" x2="368.66" y2="434.22"/><line class="cls-3" x1="291.25" y1="479.32" x2="288.68" y2="480.8"/><line class="cls-3" x1="302.5" y1="539.22" x2="299.92" y2="540.69"/><line class="cls-3" x1="293.86" y1="580.95" x2="291.28" y2="582.42"/><line class="cls-3" x1="297.08" y1="634.54" x2="294.5" y2="636.01"/><line class="cls-3" x1="455.04" y1="731.74" x2="452.46" y2="733.22"/><line class="cls-3" x1="328.7" y1="712.04" x2="326.13" y2="713.51"/><line class="cls-3" x1="342.96" y1="702.59" x2="340.39" y2="704.07"/><line class="cls-3" x1="278.27" y1="712.78" x2="275.69" y2="714.25"/><line class="cls-3" x1="304.13" y1="687.6" x2="301.55" y2="689.07"/><line class="cls-3" x1="305.41" y1="705.54" x2="302.84" y2="707.02"/><line class="cls-3" x1="311.01" y1="731.74" x2="308.44" y2="733.22"/><line class="cls-3" x1="291.25" y1="725.53" x2="288.68" y2="727"/><line class="cls-3" x1="351.52" y1="655.59" x2="348.94" y2="657.07"/><line class="cls-3" x1="331.73" y1="686.12" x2="329.16" y2="687.6"/><line class="cls-3" x1="321.37" y1="667.77" x2="318.8" y2="669.25"/><line class="cls-3" x1="389.27" y1="704.07" x2="386.7" y2="705.54"/><line class="cls-3" x1="364.03" y1="703.33" x2="361.46" y2="704.8"/><line class="cls-3" x1="394.82" y1="738.85" x2="392.24" y2="740.33"/><line class="cls-3" x1="358.75" y1="686.86" x2="356.18" y2="688.33"/><line class="cls-3" x1="412.77" y1="697.82" x2="410.2" y2="699.29"/><line class="cls-3" x1="420.5" y1="739.59" x2="417.93" y2="741.07"/><line class="cls-3" x1="362.75" y1="725.53" x2="360.17" y2="727"/><line class="cls-3" x1="365.32" y1="747.72" x2="362.75" y2="749.2"/><line class="cls-3" x1="341.68" y1="731.01" x2="339.1" y2="732.48"/><line class="cls-3" x1="329.99" y1="451.17" x2="327.42" y2="452.65"/><line class="cls-3" x1="331.28" y1="498.23" x2="328.7" y2="499.7"/><line class="cls-3" x1="342.96" y1="557.76" x2="340.39" y2="559.24"/><line class="cls-3" x1="342.96" y1="596.09" x2="340.39" y2="597.56"/><line class="cls-3" x1="457.61" y1="677.67" x2="455.04" y2="679.14"/><line class="cls-3" x1="483.11" y1="685.39" x2="480.53" y2="686.86"/><line class="cls-3" x1="481.82" y1="724.05" x2="479.25" y2="725.53"/><line class="cls-3" x1="431.54" y1="676.93" x2="428.96" y2="678.4"/><line class="cls-3" x1="473.02" y1="704.8" x2="470.45" y2="706.28"/><line class="cls-3" x1="500.49" y1="705.54" x2="497.91" y2="707.02"/><line class="cls-3" x1="405.46" y1="678.4" x2="402.88" y2="679.88"/><line class="cls-3" x1="383.04" y1="676.93" x2="380.46" y2="678.4"/><line class="cls-3" x1="390.56" y1="724.79" x2="387.99" y2="726.26"/><line class="cls-3" x1="389.27" y1="615.29" x2="386.7" y2="616.76"/><line class="cls-3" x1="341.19" y1="623.78" x2="338.62" y2="625.25"/><line class="cls-3" x1="394.82" y1="655.59" x2="392.24" y2="657.07"/><line class="cls-3" x1="435.12" y1="655.59" x2="432.55" y2="657.07"/><line class="cls-3" x1="436.41" y1="697.08" x2="433.83" y2="698.55"/><line class="cls-3" x1="458.9" y1="696.34" x2="456.33" y2="697.82"/><line class="cls-3" x1="421.79" y1="718.7" x2="419.21" y2="720.18"/><line class="cls-3" x1="446.94" y1="713.51" x2="444.37" y2="714.99"/><line class="cls-3" x1="360.04" y1="467.31" x2="357.46" y2="468.78"/><line class="cls-3" x1="393.53" y1="486.38" x2="390.96" y2="487.85"/><line class="cls-3" x1="371.24" y1="523.39" x2="368.66" y2="524.87"/><line class="cls-3" x1="381.75" y1="580.21" x2="379.18" y2="581.69"/><line class="cls-3" x1="265.59" y1="518.09" x2="263.01" y2="519.57"/><line class="cls-3" x1="267.07" y1="451.91" x2="264.5" y2="453.38"/><path class="cls-2" d="m518.76,1016.02l-21.79,27.96c-4.27,5.48-10.83,8.68-17.77,8.68h-167.46c-6.72,0-13.1-3-17.38-8.19l-23.48-28.46"/><path class="cls-2" d="m372.1,1052.66l-19.95-16.21c-5.26-4.28-8.32-10.7-8.32-17.48v-2.95"/><path class="cls-2" d="m421.58,1052.66l19.95-16.21c5.26-4.28,8.32-10.7,8.32-17.48v-2.95"/></svg>