<?xml version="1.0" encoding="UTF-8"?><svg id="Layer_1" xmlns="http://www.w3.org/2000/svg" viewBox="0 0 841 1117"><defs><style>.cls-1{stroke:#fdf8f1;}.cls-1,.cls-2{stroke-width:12.5px;}.cls-1,.cls-2,.cls-3{fill:none;stroke-linecap:round;stroke-linejoin:round;}.cls-2{stroke:#493424;}.cls-4{fill:#493424;}.cls-4,.cls-5,.cls-6{stroke-width:0px;}.cls-5{fill:#c07d4d;}.cls-6{fill:#741e17;}.cls-3{stroke:#741e17;stroke-width:3.01px;}</style></defs><path class="cls-4" d="m537.8,231.28c24.07-8.36,47.19-16.36,70.38-24.36,32.16-11.09,64.24-22.26,96.4-33.35,1.62-.56,3.24-1.12,4.79-1.83,6.54-2.88,12.27-6.95,13.21-14.75,1.08-8.43-4.25-13.69-10.38-17.76-15.44-10.25-32.76-13.13-50.76-12.71-21.44.49-41.39,7.3-61.41,14.53-42.47,15.31-85.01,30.4-127.68,45.15-4.25,1.47-9.64,1.76-13.89.42-60.74-18.33-122.69-22.61-185.52-19.1-45.77,2.53-90.87,8.64-134.42,23.73-19.28,6.67-37.75,15.17-53.53,28.65-21.77,18.68-24.67,36.16-10.85,61.37,1.69,3.02,1.82,7.23,1.82,10.95.13,53.01.61,106.02-.2,158.97-.34,21.49,8.16,37.07,23.93,49.71,23.39,18.75,50.56,29.42,78.87,36.79,92.56,23.94,184.64,22.96,275.85-7.37,21.5-7.16,41.8-17.13,59.46-32.09,14.7-12.43,22.38-27.59,22.11-47.89-.74-53.01-.27-105.95-.13-158.97,0-3.58.4-7.86,2.29-10.67,10.92-16.15,10.99-32.02-.4-49.36l.07-.07Zm-19.21,138.39c0,27.81-.27,55.61.13,83.49.2,11.8-3.78,21.28-12.2,28.72-5.6,4.92-11.53,9.62-17.93,13.41-33.57,20.01-70.51,29.56-108.47,35.53-70.11,11.02-139.41,7.3-207.56-13.27-21.98-6.6-43.08-15.52-61.68-29.63-12.2-9.27-18.54-20.78-18.27-37.28.74-54.49.4-108.9,0-163.39,0-5.62-2.29-11.8-5.26-16.64-6.81-10.88-7.08-19.73,1.42-29.56,3.91-4.56,8.36-9.27,13.48-12.01,14.9-7.86,29.8-16.15,45.5-21.84,42.07-15.17,86.02-20.43,130.31-22.47,46.04-2.11,91.88-1.12,137.12,9.27,16.11,3.72,31.95,11.02,48.06,11.73,15.3.63,27.03,7.37,39.37,13.9,11.73,6.18,18,17.83,24.54,28.79,4.58,7.72,1.01,14.96-3.1,22.12-2.7,4.7-5.19,10.39-5.33,15.73-.54,27.81-.27,55.61-.27,83.42h.13Zm186.46-214.72c-62.36,21.49-122.56,42.2-182.75,62.84-1.69.56-4.11.98-5.53.21-10.04-5.62-19.89-11.59-30.61-17.9,45.71-16.22,90.47-32.16,136.11-48.38-1.55,9.2,3.17,13.69,9.77,14.46,9.44,1.19,19.28,1.69,28.65.42,4.38-.56,10.45-5.2,11.73-9.27,2.02-6.46-4.65-8.92-9.77-10.95-.94-.35-1.82-.91-4.72-2.46,17.53-.91,31.75,2.18,47.12,11.09v-.07Zm-43.41-.14c0,1.05.07,2.11.13,3.23h-28.52v-3.23s28.38,0,28.38,0Z"/><path class="cls-4" d="m306.37,324.81c48.4-.28,96.4-4.14,142.64-19.73,16.31-5.48,32.49-13.06,46.72-22.82,22.25-15.24,21.77-35.32.67-52.17-17.46-13.9-38.02-21.42-59.05-26.61-89.79-22.05-179.65-22.33-269.11,1.9-15.24,4.14-29.53,12.08-44.16,18.4-1.82.77-3.44,2.11-5.06,3.3-26.02,18.47-26.09,40.23.27,58.35,22.65,15.59,48.6,22.75,74.9,28.37,37.01,8,74.42,11.09,112.24,10.95l-.07.07Zm-4.31-128.56c45.84.35,87.57,3.72,128.42,14.32,21.64,5.55,42.94,12.29,61.01,26.4,15.98,12.5,16.38,26.75-.2,38.41-11.12,7.79-23.66,14.18-36.4,18.96-35.39,13.2-72.4,18.33-109.81,20.57-55.48,3.3-110.62.84-164.89-13.06-21.1-5.41-41.8-12.08-59.53-25.63-16.92-12.92-17.19-27.1.2-39.46,9.98-7.09,21.1-12.92,32.49-17.2,49.21-18.47,100.58-22.33,148.64-23.1l.07-.21Z"/><path class="cls-2" d="m432.44,580.32l-21.79,29.12c-4.27,5.71-10.83,9.04-17.77,9.04h-167.46c-6.72,0-13.1-3.13-17.38-8.53l-23.48-29.63"/><path class="cls-2" d="m285.78,618.48l-19.95-16.89c-5.26-4.46-8.32-11.14-8.32-18.21v-3.07"/><path class="cls-2" d="m335.26,618.48l19.95-16.89c5.26-4.46,8.32-11.14,8.32-18.21v-3.07"/><path class="cls-1" d="m239.07,111.23c-43.64,68.89,44.92,68.89,0,137.79"/><path class="cls-1" d="m303.65,111.23c-43.64,68.89,44.92,68.89,0,137.79"/><path class="cls-1" d="m357.5,111.23c-43.64,68.89,44.92,68.89,0,137.79"/><path class="cls-5" d="m516.39,764.66h67.52c4.94,0,8.96,3.82,8.98,8.54.02,3.64.02,7.23-.1,10.82-.12,3.49,1.06,4.81,4.83,5.73,85.55,20.96,140.62,72.31,161.79,153.97,27.62,106.53-39.79,214.19-150.84,244.62-117.88,32.31-241.48-38-268.31-152.62-25.56-109.22,44.42-217.76,157.89-244.87q9.29-2.22,9.26-11.46c0-2.04,0-4.08,0-6.15,0-4.74,4.02-8.58,8.98-8.58Zm-8.98,44.89c-88.71,18.75-162.41,100.02-150.12,202.82,11.65,97.43,103.06,172.09,210.62,162.9,95.43-8.16,172.48-82.98,176.21-177.07,4.12-103.9-76.05-175.08-150.94-188.47-.11,2.08-.3,4.11-.31,6.13-.02,29.89.01,59.79-.02,89.68-.03,29.09.6,58.2-.4,87.26-.98,28.81-31.24,46.41-59.14,35.42-16.65-6.56-25.89-20.92-25.89-40.43-.02-57.22-.01-114.44-.02-171.65,0-2.03,0-4.05,0-6.59Zm27.7-25.18c-3.75,0-6.87,2.88-6.88,6.46,0,.02,0,.04,0,.06-.02,64.1-.02,128.2,0,192.3,0,3.37.03,6.76.39,10.1,1.04,9.83,9.04,17.26,19.17,17.99,11.39.82,20.9-5.12,23.37-14.98.81-3.23.85-6.69.85-10.05.05-62.49.05-124.99.05-187.48,0-3.69.23-7.42-.18-11.07-.13-1.19-1.93-3.16-2.99-3.18-11.16-.18-22.33-.16-33.79-.15Z"/><path class="cls-6" d="m485.27,872.49l.09.17c2.32,4.42.75,9.84-3.68,12.39-59.13,33.91-73.32,104.88-50.92,154.01,23.95,52.52,80.03,81.5,136.78,74.18,60.69-7.83,107-54.77,112-112.94.44-5.08,4.94-8.96,10.27-8.96h0c6.01,0,10.72,4.89,10.29,10.62-1.69,22.68-8.77,43.83-21.39,63.4-20.94,32.49-50.83,54.1-89.39,64-78.35,20.12-158.45-21.79-182.74-95.87-22.28-67.96,11.07-135.34,64.78-164.98,4.98-2.75,11.35-.92,13.92,3.98Z"/><polyline class="cls-3" points="542.14 814.28 542.14 797 550.01 804.52 558.46 796.44 558.46 814.28"/></svg>