<?xml version="1.0" encoding="UTF-8"?><svg id="Layer_1" xmlns="http://www.w3.org/2000/svg" viewBox="0 0 531 580"><defs><style>.cls-1{stroke:#741e17;stroke-width:2.14px;}.cls-1,.cls-2,.cls-3{fill:none;stroke-linecap:round;stroke-linejoin:round;}.cls-2{stroke:#fdf8f1;}.cls-2,.cls-3{stroke-width:8.02px;}.cls-3{stroke:#493424;}.cls-4{fill:#493424;}.cls-4,.cls-5,.cls-6{stroke-width:0px;}.cls-5{fill:#c07d4d;}.cls-6{fill:#741e17;}</style></defs><path class="cls-4" d="m312.14,92.26c15.44-5.36,30.27-10.49,45.14-15.62,20.63-7.11,41.2-14.28,61.83-21.39,1.04-.36,2.08-.72,3.07-1.17,4.19-1.85,7.87-4.46,8.47-9.46.69-5.41-2.73-8.78-6.66-11.39-9.9-6.57-21.01-8.42-32.55-8.15-13.75.31-26.55,4.68-39.39,9.32-27.24,9.82-54.52,19.5-81.89,28.96-2.73.94-6.18,1.13-8.91.27-38.96-11.76-78.69-14.5-118.98-12.25-29.35,1.62-58.28,5.54-86.21,15.22-12.37,4.28-24.21,9.73-34.33,18.37-13.96,11.98-15.82,23.19-6.96,39.36,1.08,1.94,1.17,4.64,1.17,7.02.08,34,.39,68-.13,101.95-.22,13.78,5.23,23.77,15.35,31.88,15,12.03,32.43,18.87,50.58,23.6,59.36,15.35,118.42,14.73,176.92-4.73,13.79-4.59,26.81-10.99,38.13-20.58,9.43-7.97,14.35-17.69,14.18-30.71-.47-34-.17-67.95-.08-101.95,0-2.3.26-5.04,1.47-6.84,7-10.36,7.05-20.54-.26-31.66l.04-.04h0Zm-12.32,88.76c0,17.84-.17,35.67.08,53.55.13,7.57-2.42,13.65-7.82,18.42-3.59,3.16-7.39,6.17-11.5,8.6-21.53,12.83-45.22,18.96-69.57,22.79-44.96,7.07-89.41,4.68-133.12-8.51-14.1-4.23-27.63-9.95-39.56-19-7.82-5.95-11.89-13.33-11.72-23.91.47-34.95.26-69.84,0-104.79,0-3.6-1.47-7.57-3.37-10.67-4.37-6.98-4.54-12.65.91-18.96,2.51-2.92,5.36-5.95,8.65-7.7,9.56-5.04,19.11-10.36,29.18-14.01,26.98-9.73,55.17-13.1,83.57-14.41,29.53-1.35,58.93-.72,87.94,5.95,10.33,2.39,20.49,7.07,30.82,7.52,9.81.4,17.34,4.73,25.25,8.91,7.52,3.96,11.54,11.44,15.74,18.46,2.94,4.95.65,9.59-1.99,14.19-1.73,3.01-3.33,6.66-3.42,10.09-.35,17.84-.17,35.67-.17,53.5h.09Zm119.59-137.71c-39.99,13.78-78.6,27.06-117.21,40.3-1.08.36-2.64.63-3.55.13-6.44-3.6-12.76-7.43-19.63-11.48,29.32-10.4,58.02-20.63,87.29-31.03-.99,5.9,2.03,8.78,6.27,9.27,6.05.76,12.37,1.08,18.37.27,2.81-.36,6.7-3.33,7.52-5.95,1.3-4.14-2.98-5.72-6.27-7.02-.6-.22-1.17-.58-3.03-1.58,11.24-.58,20.36,1.4,30.22,7.11v-.04h0Zm-27.84-.09c0,.67.04,1.35.08,2.07h-18.29v-2.07h18.21Z"/><path class="cls-4" d="m163.72,152.25c31.04-.18,61.83-2.66,91.48-12.65,10.46-3.51,20.84-8.38,29.96-14.64,14.27-9.77,13.96-22.65.43-33.46-11.2-8.91-24.38-13.74-37.87-17.07-57.59-14.14-115.22-14.32-172.59,1.22-9.77,2.66-18.94,7.75-28.32,11.8-1.17.49-2.21,1.35-3.25,2.12-16.69,11.85-16.73,25.8.17,37.42,14.53,10,31.17,14.59,48.04,18.19,23.74,5.13,47.73,7.11,71.98,7.02l-.04.04h0Zm-2.76-82.45c29.4.22,56.16,2.39,82.36,9.18,13.88,3.56,27.54,7.88,39.13,16.93,10.25,8.02,10.51,17.16-.13,24.63-7.13,5-15.17,9.09-23.34,12.16-22.7,8.47-46.43,11.76-70.43,13.19-35.58,2.12-70.95.54-105.75-8.38-13.53-3.47-26.81-7.75-38.18-16.44-10.85-8.29-11.02-17.38.13-25.31,6.4-4.55,13.53-8.29,20.84-11.03,31.56-11.85,64.51-14.32,95.33-14.82l.04-.13Z"/><path class="cls-3" d="m244.57,316.12l-13.97,18.68c-2.74,3.66-6.95,5.8-11.4,5.8h-107.4c-4.31,0-8.4-2.01-11.15-5.47l-15.06-19"/><path class="cls-3" d="m150.51,340.59l-12.79-10.83c-3.37-2.86-5.34-7.14-5.34-11.68v-1.97"/><path class="cls-3" d="m182.24,340.59l12.79-10.83c3.37-2.86,5.34-7.14,5.34-11.68v-1.97"/><path class="cls-2" d="m120.55,15.27c-27.99,44.18,28.81,44.18,0,88.37"/><path class="cls-2" d="m161.97,15.27c-27.99,44.18,28.81,44.18,0,88.37"/><path class="cls-2" d="m196.51,15.27c-27.99,44.18,28.81,44.18,0,88.37"/><path class="cls-5" d="m345.53,349.25h48.04c3.51,0,6.37,2.72,6.39,6.08.01,2.59.01,5.14-.07,7.7-.09,2.48.75,3.42,3.44,4.08,60.86,14.91,100.04,51.44,115.1,109.54,19.65,75.79-28.31,152.38-107.31,174.03-83.87,22.99-171.8-27.03-190.89-108.58-18.18-77.7,31.6-154.92,112.33-174.21,4.41-1.05,6.6-3.77,6.59-8.15v-4.38c0-3.37,2.86-6.1,6.39-6.1h0Zm-6.39,31.94c-63.11,13.34-115.55,71.16-106.8,144.3,8.29,69.32,73.32,122.43,149.84,115.89,67.89-5.81,122.71-59.04,125.36-125.98,2.93-73.92-54.11-124.56-107.39-134.09-.08,1.48-.21,2.92-.22,4.36-.01,21.27,0,42.54-.01,63.8-.02,20.7.43,41.41-.28,62.08-.7,20.5-22.23,33.02-42.07,25.2-11.85-4.67-18.42-14.88-18.42-28.76-.01-40.71,0-81.42-.01-122.12v-4.69h0Zm19.71-17.91c-2.67,0-4.89,2.05-4.89,4.6v.04c-.01,45.6-.01,91.21,0,136.81,0,2.4.02,4.81.28,7.19.74,6.99,6.43,12.28,13.64,12.8,8.1.58,14.87-3.64,16.63-10.66.58-2.3.6-4.76.6-7.15.04-44.46.04-88.92.04-133.38,0-2.63.16-5.28-.13-7.88-.09-.85-1.37-2.25-2.13-2.26-7.94-.13-15.89-.11-24.04-.11h0Z"/><path class="cls-6" d="m323.39,425.96l.06.12c1.65,3.14.53,7-2.62,8.81-42.07,24.13-52.16,74.62-36.23,109.57,17.04,37.37,56.94,57.98,97.31,52.77,43.18-5.57,76.12-38.97,79.68-80.35.31-3.61,3.51-6.37,7.31-6.37h0c4.28,0,7.63,3.48,7.32,7.56-1.2,16.14-6.24,31.18-15.22,45.11-14.9,23.11-36.16,38.49-63.6,45.53-55.74,14.31-112.73-15.5-130.01-68.21-15.85-48.35,7.88-96.29,46.09-117.37,3.54-1.96,8.07-.65,9.9,2.83h0Z"/><polyline class="cls-1" points="363.85 384.55 363.85 372.25 369.45 377.6 375.46 371.86 375.46 384.55"/></svg>