<svg width="53" height="65" viewBox="0 0 53 65" fill="none" xmlns="http://www.w3.org/2000/svg">
<g id="next arrow" filter="url(#filter0_d_151_46)">
<path d="M20.1973 45.9448C19.7059 45.8136 19.3129 45.4425 19.0911 44.9031C19.0125 44.7119 19.0097 44.6862 19.0097 44.2466C19.0097 43.8071 19.0125 43.7814 19.0911 43.5902C19.2511 43.1963 19.3185 43.1193 20.2478 42.2088C20.4472 42.0119 21.0199 41.4467 21.5225 40.9501C22.025 40.4535 22.6371 39.8484 22.8842 39.6058C23.4485 39.055 24.1925 38.3186 24.4704 38.0389C24.5856 37.9219 25.0095 37.5052 25.411 37.1113C25.8125 36.7203 26.242 36.295 26.3656 36.1694C26.6548 35.8755 28.1512 34.3999 28.5667 33.9974C28.7436 33.8262 29.1535 33.4209 29.4792 33.0927L30.0716 32.5019L29.6196 32.0509C29.3725 31.8055 28.8475 31.2889 28.4572 30.9036C28.0642 30.5183 27.4858 29.9474 27.1686 29.6306C26.5537 29.0198 25.6328 28.1094 25.0741 27.5585C24.8888 27.3759 24.4227 26.9135 24.0381 26.531C23.6534 26.1514 23.2548 25.7547 23.1509 25.652C23.047 25.5492 22.7803 25.2866 22.5585 25.0697C22.3367 24.8528 21.7499 24.2734 21.2557 23.7854C20.7616 23.2973 20.1832 22.7236 19.9699 22.5124C19.3606 21.9102 19.296 21.8388 19.1865 21.6248C19.0349 21.3308 18.9844 21.0682 19.004 20.6629C19.0209 20.2605 19.0883 20.0265 19.2567 19.7725C19.4898 19.4157 19.8407 19.1531 20.2141 19.0532C20.4696 18.9847 20.9806 18.9819 21.2389 19.0475C21.4467 19.1017 21.7611 19.2559 21.8734 19.3586C21.9127 19.3986 21.9492 19.43 21.952 19.43C21.9576 19.43 22.1682 19.6383 22.4237 19.8952C22.6792 20.1492 23.2267 20.6915 23.6422 21.0996C24.0577 21.5078 24.5856 22.0272 24.813 22.2555C25.0376 22.4839 25.3436 22.7836 25.4868 22.9234C25.8714 23.3002 27.5644 24.9755 27.8115 25.2238C27.9294 25.3409 28.3506 25.7576 28.752 26.1514C29.1535 26.5425 29.5775 26.962 29.6926 27.079C29.9032 27.2902 30.3833 27.7669 31.7871 29.1483C33.4772 30.8151 33.6064 30.9578 33.7973 31.3859C33.9545 31.737 33.9995 31.9796 33.9995 32.5162C34.0023 32.9671 33.9966 33.0213 33.9236 33.2668C33.845 33.5379 33.7215 33.7977 33.5643 34.0374C33.4688 34.1773 33.1347 34.5198 31.9696 35.6671C31.5905 36.0382 30.9729 36.6518 30.5938 37.0314C30.2148 37.411 29.8582 37.762 29.8049 37.8134C29.7516 37.8648 29.2771 38.33 28.752 38.8495C28.227 39.3689 27.6487 39.9426 27.4662 40.1224C27.2809 40.3022 26.9411 40.6447 26.7053 40.8788C26.4695 41.1157 26.0062 41.5723 25.6749 41.8977C25.3436 42.2202 24.8579 42.7026 24.5912 42.968C24.3245 43.2306 23.8022 43.75 23.426 44.1182C23.0526 44.4864 22.5529 44.983 22.3142 45.217C21.8397 45.6908 21.5786 45.8735 21.2586 45.9563C21.0059 46.0191 20.45 46.0133 20.1973 45.9448Z" fill="#5C3C25"/>
</g>
<defs>
<filter id="filter0_d_151_46" x="0" y="0" width="53" height="65" filterUnits="userSpaceOnUse" color-interpolation-filters="sRGB">
<feFlood flood-opacity="0" result="BackgroundImageFix"/>
<feColorMatrix in="SourceAlpha" type="matrix" values="0 0 0 0 0 0 0 0 0 0 0 0 0 0 0 0 0 0 127 0" result="hardAlpha"/>
<feOffset/>
<feGaussianBlur stdDeviation="9.5"/>
<feComposite in2="hardAlpha" operator="out"/>
<feColorMatrix type="matrix" values="0 0 0 0 0 0 0 0 0 0 0 0 0 0 0 0 0 0 0.47 0"/>
<feBlend mode="normal" in2="BackgroundImageFix" result="effect1_dropShadow_151_46"/>
<feBlend mode="normal" in="SourceGraphic" in2="effect1_dropShadow_151_46" result="shape"/>
</filter>
</defs>
</svg>
