<?xml version="1.0" encoding="UTF-8"?><svg id="Layer_1" xmlns="http://www.w3.org/2000/svg" viewBox="0 0 841 1117"><defs><style>.cls-1{fill:none;stroke:#fdf8f1;stroke-linecap:round;stroke-linejoin:round;stroke-width:11px;}.cls-2{fill:#493424;stroke-width:0px;}</style></defs><path class="cls-2" d="m654.04,677.42c21.47-7.16,42.09-14.01,62.77-20.86,28.68-9.5,57.3-19.06,85.98-28.56,1.44-.48,2.89-.96,4.27-1.56,5.83-2.47,10.94-5.95,11.78-12.63.96-7.22-3.79-11.72-9.26-15.21-13.77-8.78-29.22-11.24-45.28-10.88-19.12.42-36.92,6.25-54.78,12.45-37.88,13.11-75.82,26.04-113.88,38.66-3.79,1.26-8.6,1.5-12.39.36-54.17-15.69-109.43-19.36-165.47-16.35-40.83,2.16-81.05,7.4-119.89,20.32-17.2,5.71-33.67,12.99-47.74,24.53-19.42,15.99-22.01,30.97-9.68,52.55,1.5,2.59,1.62,6.19,1.62,9.38.12,45.4.54,90.79-.18,136.13-.3,18.4,7.28,31.75,21.35,42.57,20.86,16.05,45.1,25.19,70.35,31.51,82.55,20.5,164.69,19.66,246.04-6.31,19.18-6.13,37.28-14.67,53.03-27.48,13.11-10.64,19.96-23.63,19.72-41.01-.66-45.4-.24-90.73-.12-136.13,0-3.07.36-6.73,2.04-9.14,9.74-13.83,9.8-27.42-.36-42.27l.06-.06Zm-17.14,118.51c0,23.81-.24,47.62.12,71.49.18,10.1-3.37,18.22-10.88,24.59-4.99,4.21-10.28,8.24-15.99,11.48-29.94,17.14-62.89,25.31-96.74,30.42-62.53,9.44-124.34,6.25-185.13-11.36-19.6-5.65-38.42-13.29-55.02-25.37-10.88-7.94-16.54-17.8-16.29-31.93.66-46.66.36-93.26,0-139.92,0-4.81-2.04-10.1-4.69-14.25-6.07-9.32-6.31-16.9,1.26-25.31,3.49-3.91,7.46-7.94,12.03-10.28,13.29-6.73,26.58-13.83,40.59-18.7,37.52-12.99,76.72-17.5,116.23-19.24,41.07-1.8,81.95-.96,122.3,7.94,14.37,3.19,28.5,9.44,42.87,10.04,13.65.54,24.11,6.31,35.11,11.91,10.46,5.29,16.05,15.27,21.89,24.65,4.09,6.61.9,12.81-2.77,18.94-2.41,4.03-4.63,8.9-4.75,13.47-.48,23.81-.24,47.62-.24,71.43h.12Zm166.31-183.87c-55.62,18.4-109.31,36.14-163.01,53.81-1.5.48-3.67.84-4.93.18-8.96-4.81-17.74-9.92-27.3-15.33,40.77-13.89,80.69-27.54,121.4-41.43-1.38,7.88,2.83,11.72,8.72,12.39,8.42,1.02,17.2,1.44,25.55.36,3.91-.48,9.32-4.45,10.46-7.94,1.8-5.53-4.15-7.64-8.72-9.38-.84-.3-1.62-.78-4.21-2.1,15.63-.78,28.32,1.86,42.03,9.5v-.06Zm-38.72-.12c0,.9.06,1.8.12,2.77h-25.43v-2.77s25.31,0,25.31,0Z"/><path class="cls-2" d="m447.63,757.51c43.17-.24,85.98-3.55,127.23-16.9,14.55-4.69,28.98-11.18,41.67-19.54,19.84-13.05,19.42-30.24.6-44.68-15.57-11.91-33.91-18.34-52.67-22.79-80.09-18.88-160.24-19.12-240.03,1.62-13.59,3.55-26.34,10.34-39.38,15.75-1.62.66-3.07,1.8-4.51,2.83-23.21,15.81-23.27,34.45.24,49.97,20.2,13.35,43.35,19.48,66.8,24.29,33.01,6.85,66.38,9.5,100.11,9.38l-.06.06Zm-3.85-110.09c40.89.3,78.11,3.19,114.54,12.27,19.3,4.75,38.3,10.52,54.42,22.61,14.25,10.7,14.61,22.91-.18,32.89-9.92,6.67-21.1,12.15-32.47,16.23-31.57,11.3-64.58,15.69-97.95,17.62-49.48,2.83-98.67.72-147.07-11.18-18.82-4.63-37.28-10.34-53.09-21.95-15.09-11.06-15.33-23.21.18-33.79,8.9-6.07,18.82-11.06,28.98-14.73,43.89-15.81,89.71-19.12,132.58-19.78l.06-.18Z"/><path class="cls-1" d="m222.92,324.81s214.07,118.68,197.58,400.58"/><path class="cls-1" d="m200.97,283.61s294.31,76.75,304.94,414.92"/><path class="cls-2" d="m132.55,194.83c1.22-.53,2.32-.93,3.36-1.48,3.1-1.63,6.15-3.36,9.25-4.98,3.47-1.82,7.13-1.18,9.42,1.58.34.41.61.89.86,1.37,12.66,23.79,25.31,47.59,37.96,71.38,17.76,33.39,35.51,66.79,53.32,100.16,2.06,3.86.94,7.74-2.03,9.91-.98.72-2.12,1.23-3.21,1.79-5.97,3.08-11.89,6.25-17.92,9.21-10.46,5.13-20.96,10.2-31.51,15.17-7.41,3.49-14.87,6.88-22.41,10.09-9.99,4.26-20.01,8.47-30.13,12.41-9.88,3.84-19.85,7.5-29.89,10.91-13.43,4.57-27.04,8.51-41.2,10.19-11.03,1.31-21.98,1.01-32.74-1.99-2.33-.65-4.6-1.5-6.91-2.21-.53-.16-1.12-.26-1.66-.2-3.48.36-6.95.81-10.43,1.15-4.65.46-8.44-1.62-10.62-5.73-14.5-27.27-28.97-54.56-43.53-81.8-2.32-4.34-1.46-8.97,1.2-12.12,2.28-2.7,4.59-5.38,6.87-8.08.25-.29.49-.64.57-1,2.8-12.28,8.57-23.07,16.43-32.83.34-.42.5-1,.74-1.51.21-.45.32-.98.63-1.36,2.82-3.51,4.2-7.62,4.98-11.97,1.3-7.27,1.46-14.64,1.78-22,.31-6.99.3-14.02.98-20.97,1.38-14.16,6.45-27.12,13.68-39.27,7.79-13.07,17.65-24.32,29.87-33.43,10.49-7.82,21.95-13.59,34.93-15.98,10.12-1.86,20.08-1.38,29.69,2.55,10.92,4.47,18.61,12.26,23.32,23.05,2.27,5.21,3.57,10.65,4.06,16.3.04.49.17.97.3,1.68Zm62.72,85.57c-15.13-28.45-30.26-56.91-45.39-85.36-.63-1.18-.83-1.26-2-.64-1.05.56-2.07,1.17-3.11,1.75-4.46,2.46-8.95,4.86-13.38,7.37-7.85,4.45-15.68,8.93-23.48,13.47-5.46,3.18-10.89,6.41-16.24,9.76-8.36,5.22-16.69,10.47-24.93,15.87-7.48,4.91-14.91,9.91-22.2,15.09-7.41,5.27-14.7,10.7-21.9,16.25-8.65,6.68-16.99,13.74-24.45,21.77-8.35,8.98-15.17,18.89-18.96,30.69-1.67,5.19-2.69,10.41-1.62,15.86.71,3.59,2.34,6.78,4.09,9.96,3.38,6.18,6.56,12.46,9.87,18.68,8.42,15.81,16.87,31.62,25.31,47.42.83,1.56,1.6,3.17,2.61,4.62,3.06,4.39,7.19,7.45,12.19,9.32,6.37,2.37,12.96,3.74,19.75,4.16,10.36.65,20.52-.72,30.57-3.04,14.97-3.45,29.5-8.35,43.84-13.81,11.8-4.5,23.54-9.18,35.17-14.1,11.07-4.68,22-9.69,32.91-14.73,8.26-3.81,16.42-7.83,24.56-11.88,7.18-3.57,14.27-7.3,21.4-10.97,1.52-.78,1.53-.87.72-2.38-9.07-17.03-18.14-34.05-27.21-51.08-6.04-11.35-12.08-22.71-18.12-34.07Zm-89.95-92.99c-3.58-6.85-7.39-10.32-12.61-12.14-5.31-1.85-10.71-1.71-16.12-.5-8.3,1.86-15.64,5.76-22.28,10.93-15.09,11.77-25.68,26.71-31.04,45.17-2.1,7.25-2.91,14.65-1.57,22.16.56,3.15,1.51,6.17,3.15,8.93.17.29.7.65.92.57.8-.29,1.6-.66,2.29-1.15,2.96-2.12,5.85-4.34,8.84-6.43,6.36-4.45,12.72-8.89,19.14-13.23,5.47-3.7,11.01-7.3,16.57-10.86,5.71-3.66,11.49-7.22,17.24-10.81,4.31-2.69,8.63-5.38,12.97-8.03,3.19-1.95,4.73-4.7,4.83-8.49.15-6.29-.42-12.39-2.34-16.12Zm8.97,18.1c4.09-2.32,8.07-4.58,12.07-6.82.51-.29.43-.58.28-1.06-.39-1.23-.85-2.47-.98-3.74-.48-4.77-1.47-9.4-3.33-13.83-4.14-9.87-11.11-16.84-21.18-20.56-8.66-3.2-17.52-3.28-26.45-1.37-11.96,2.55-22.47,8.16-32.03,15.63-12.91,10.09-22.96,22.56-30.31,37.19-5.88,11.71-9.28,24.05-9.57,37.24-.2,9.27-.75,18.53-1.23,27.79-.13,2.54-.57,5.07-.86,7.56,6.51-5.45,13.04-10.92,19.58-16.4-2.57-3.57-4.03-7.62-4.91-11.9-2-9.75-.72-19.27,2.21-28.62,3.59-11.48,9.38-21.79,17.05-31.03,9.32-11.22,20.28-20.3,34.14-25.42,6.41-2.37,13.02-3.54,19.86-2.64,9.73,1.29,17,6.21,21.61,14.94,2.64,5.01,3.81,10.41,4.05,16.02.1,2.29.01,4.6,0,7.04ZM18.93,432.37c-.52-.53-.82-.78-1.07-1.08-1.62-2.02-3.44-3.92-4.79-6.1-2.03-3.28-3.74-6.76-5.56-10.17-4.59-8.6-9.16-17.22-13.74-25.83-2.78-5.23-5.56-10.46-8.34-15.69-3.31-6.25-6.55-12.55-9.96-18.75-2.14-3.89-3.94-7.87-4.62-12.28-.03-.18-.15-.35-.26-.6-.4.46-.73.84-1.06,1.23-2.16,2.54-2.26,3.46-.69,6.41,14.14,26.59,28.28,53.19,42.42,79.78.24.45.47.89.71,1.34.69,1.29,1.78,2.01,3.22,2.03,1.14.01,2.28-.16,3.71-.27Z"/></svg>